<?xml version="1.0" encoding="UTF-8"?>
<svg width="51px" height="48px" viewBox="0 0 51 48" version="1.1" xmlns="http://www.w3.org/2000/svg" xmlns:xlink="http://www.w3.org/1999/xlink">
    <!-- Generator: Sketch 42 (36781) - http://www.bohemiancoding.com/sketch -->
    <title>award-icon</title>
    <desc>Created with Sketch.</desc>
    <defs></defs>
    <g id="Page-1" stroke="none" stroke-width="1" fill="none" fill-rule="evenodd">
        <g id="Big_landing_v2" transform="translate(-159.000000, -2702.000000)" fill="#51DCC3">
            <g id="services" transform="translate(135.000000, 2140.000000)">
                <g id="3" transform="translate(0.000000, 531.000000)">
                    <g id="icon" transform="translate(0.000000, 6.000000)">
                        <g id="award-icon" transform="translate(24.285714, 25.714286)">
                            <path d="M24.2445575,45.022453 L24.2445575,35.2763624 C24.2445575,34.689324 24.7199582,34.2139233 25.3069965,34.2139233 C25.8940348,34.2139233 26.3694355,34.689324 26.3694355,35.2763624 L26.3694355,45.022453 L34.7954425,45.022453 C35.3824808,45.022453 35.8578815,45.4978537 35.8578815,46.0836376 C35.8578815,46.670676 35.3824808,47.1460767 34.7954425,47.1460767 L15.8182997,47.1460767 C15.2312613,47.1460767 14.7558606,46.670676 14.7558606,46.0836376 C14.7558606,45.4978537 15.2312613,45.022453 15.8182997,45.022453 L24.2445575,45.022453 Z" id="Combined-Shape"></path>
                            <path d="M11.3425087,2.12387456 C11.5770732,11.8162787 15.014007,21.2703554 21.0788153,28.8541882 L25.3072474,34.1387875 L29.5344251,28.8541882 C35.5992334,21.2703554 39.0349129,11.8162787 39.2707317,2.12387456 L11.3425087,2.12387456 Z M17.9668015,28.2625897 C2.30411035,27.8230477 0.0263708694,6.66099456 0.00526829268,6.44500348 C-0.0248362369,6.1464669 0.0730034843,5.85043902 0.274954704,5.62716376 C0.475651568,5.40514286 0.761644599,5.27845296 1.06143554,5.27845296 L9.39955521,5.27845296 C9.27127806,3.87944063 9.20634146,2.47224625 9.20634146,1.06143554 C9.20634146,0.475651568 9.68174216,0.000250871079 10.2675261,0.000250871079 L40.3444599,0.000250871079 C40.9314983,0.000250871079 41.406899,0.475651568 41.406899,1.06143554 C41.406899,11.6042927 37.7793031,21.9451986 31.1926829,30.1787875 L26.1363763,36.4994843 C25.9344251,36.7528641 25.6296167,36.8996237 25.3072474,36.8996237 C24.984878,36.8996237 24.6800697,36.7528641 24.4781185,36.4994843 L19.4193031,30.1787875 C18.9178821,29.5519873 18.433617,28.9129745 17.9668015,28.2625897 Z M16.4485813,26.0107167 C12.8823148,20.3716253 10.5569127,14.0054116 9.64366536,7.40207666 L2.2831777,7.40207666 C2.57669686,9.19956794 3.32680139,12.8108571 4.99634843,16.3719721 C7.6807377,22.0984477 11.5266333,25.331791 16.4485813,26.0107167 Z" id="Combined-Shape"></path>
                            <path d="M32.0931847,28.2695331 C31.5061463,28.2695331 31.0307456,27.7941324 31.0307456,27.2070941 C31.0307456,26.6213101 31.5061463,26.1459094 32.0931847,26.1459094 C37.9899094,26.1459094 42.5206411,22.8582439 45.5611986,16.3719721 C47.2307456,12.8108571 47.9808502,9.19956794 48.2743693,7.40207666 L40.0370174,7.40207666 C39.4499791,7.40207666 38.9745784,6.92667596 38.9745784,6.34089199 C38.9745784,5.75385366 39.4499791,5.27845296 40.0370174,5.27845296 L49.4961115,5.27845296 C49.7959024,5.27845296 50.0818955,5.40514286 50.2825923,5.62716376 C50.4845436,5.85043902 50.5823833,6.1464669 50.5522787,6.44500348 C50.5309547,6.66326132 48.2053798,28.2695331 32.0931847,28.2695331" id="Fill-7"></path>
                        </g>
                    </g>
                </g>
            </g>
        </g>
    </g>
</svg>