<?xml version="1.0" encoding="UTF-8"?>
<svg width="47px" height="31px" viewBox="0 0 47 31" version="1.1" xmlns="http://www.w3.org/2000/svg" xmlns:xlink="http://www.w3.org/1999/xlink">
    <!-- Generator: Sketch 42 (36781) - http://www.bohemiancoding.com/sketch -->
    <title>cloud-icon-passive</title>
    <desc>Created with Sketch.</desc>
    <defs></defs>
    <g id="Page-1" stroke="none" stroke-width="1" fill="none" fill-rule="evenodd">
        <g id="subPanel" transform="translate(-38.000000, -35.000000)" fill="#FFFFFF">
            <path d="M78.168473,51.5903332 C78.229473,51.0463332 78.259473,50.5343332 78.259473,50.0413332 C78.259473,47.5343332 77.631473,45.0533332 76.442473,42.8643332 C76.396473,42.7793332 76.333473,42.7093332 76.263473,42.6513332 C76.246473,42.5733332 76.227473,42.4963332 76.185473,42.4253332 C74.145473,38.9593332 70.877473,36.4953332 66.984473,35.4863332 C63.092473,34.4793332 59.039473,35.0473332 55.573473,37.0863332 C55.245473,37.2793332 54.934473,37.4933332 54.625473,37.7083332 C53.710473,37.0353332 52.693473,36.5533332 51.586473,36.2893332 C50.942473,36.1363332 50.280473,36.0593332 49.617473,36.0593332 C44.947473,36.0593332 41.147473,39.8593332 41.147473,44.5283332 C41.147473,45.4913332 41.316473,46.4273332 41.629473,47.3233332 C39.148473,49.3973332 37.798473,52.4933332 38.024473,55.7423332 C38.390473,60.9883332 42.942473,65.0973332 48.390473,65.0973332 L60.332473,65.0973332 L60.335473,65.0973332 C64.430473,65.0973332 68.058473,62.4193332 69.157473,58.5863332 C70.114473,55.2513332 69.890473,51.7983332 68.576473,48.6603332 L72.891473,50.4973332 C73.273473,50.6583332 73.713473,50.4823332 73.874473,50.1013332 C74.037473,49.7193332 73.859473,49.2783332 73.478473,49.1163332 L67.339473,46.5043332 C67.325473,46.4983332 67.310473,46.5003332 67.294473,46.4953332 C67.085473,46.4103332 66.845473,46.4083332 66.634473,46.5303332 C66.431473,46.6513332 66.315473,46.8543332 66.284473,47.0703332 L63.744473,53.0383332 C63.581473,53.4203332 63.759473,53.8613332 64.140473,54.0233332 C64.236473,54.0633332 64.335473,54.0823332 64.433473,54.0823332 C64.725473,54.0823332 65.002473,53.9113332 65.124473,53.6263332 L67.095473,48.9943332 C68.370473,51.8823332 68.602473,55.0843332 67.715473,58.1723332 C66.799473,61.3663332 63.764473,63.5973332 60.334473,63.5973332 L60.332473,63.5973332 L48.390473,63.5973332 C43.727473,63.5973332 39.832473,60.1013332 39.521473,55.6393332 C39.317473,52.7063332 40.606473,49.9063332 42.970473,48.1503332 C43.253473,47.9403332 43.331473,47.5713332 43.200473,47.2603332 L43.203473,47.2593332 C42.835473,46.3963332 42.647473,45.4773332 42.647473,44.5283332 C42.647473,40.6863332 45.774473,37.5593332 49.617473,37.5593332 C50.163473,37.5593332 50.710473,37.6223332 51.239473,37.7483332 C52.006473,37.9313332 52.722473,38.2423332 53.379473,38.6663332 C51.070473,40.6503332 49.414473,43.2773332 48.634473,46.2863332 C47.801473,49.5013332 48.061473,52.8203332 49.319473,55.8333332 L45.004473,53.9963332 C44.623473,53.8373332 44.182473,54.0133332 44.021473,54.3933332 C43.858473,54.7753332 44.036473,55.2153332 44.417473,55.3773332 L50.555473,57.9893332 C50.598473,58.0073332 50.643473,58.0063332 50.687473,58.0163332 C50.751473,58.0343332 50.813473,58.0673332 50.880473,58.0673332 C50.940473,58.0673332 50.997473,58.0333332 51.056473,58.0193332 L51.066473,58.0163332 C51.131473,57.9993332 51.199473,57.9993332 51.260473,57.9633332 C51.464473,57.8433332 51.579473,57.6413332 51.611473,57.4233332 L54.151473,51.4553332 C54.314473,51.0743332 54.136473,50.6333332 53.755473,50.4713332 C53.372473,50.3123332 52.933473,50.4873332 52.772473,50.8673332 L50.801473,55.4973332 C49.579473,52.7233332 49.314473,49.6423332 50.086473,46.6623332 C50.995473,43.1563332 53.213473,40.2153332 56.334473,38.3793332 C59.454473,36.5433332 63.104473,36.0333332 66.608473,36.9393332 C70.113473,37.8473332 73.055473,40.0663332 74.892473,43.1873332 C74.936473,43.2623332 74.997473,43.3203332 75.060473,43.3743332 C75.074473,43.4443332 75.087473,43.5153332 75.124473,43.5813332 C76.194473,45.5503332 76.759473,47.7843332 76.759473,50.0413332 C76.759473,50.7043332 76.697473,51.4133332 76.569473,52.2083332 C76.534473,52.4293332 76.598473,52.6533332 76.746473,52.8213332 C76.888473,52.9853332 77.094473,53.0773332 77.310473,53.0773332 C77.343473,53.0753332 77.474473,53.0633332 77.509473,53.0583332 C80.415473,53.0583332 82.779473,55.4223332 82.779473,58.3273332 C82.779473,61.2333332 80.415473,63.5973332 77.509473,63.5973332 L70.570473,63.5973332 C70.156473,63.5973332 69.820473,63.9333332 69.820473,64.3473332 C69.820473,64.7613332 70.156473,65.0973332 70.570473,65.0973332 L77.509473,65.0973332 C81.242473,65.0973332 84.279473,62.0603332 84.279473,58.3273332 C84.279473,54.8173332 81.593473,51.9223332 78.168473,51.5903332" id="cloud-icon-passive"></path>
        </g>
    </g>
</svg>