<?xml version="1.0" encoding="UTF-8"?>
<svg width="50px" height="46px" viewBox="0 0 50 46" version="1.1" xmlns="http://www.w3.org/2000/svg" xmlns:xlink="http://www.w3.org/1999/xlink">
    <!-- Generator: Sketch 42 (36781) - http://www.bohemiancoding.com/sketch -->
    <title>connect-icon</title>
    <desc>Created with Sketch.</desc>
    <defs></defs>
    <g id="Page-1" stroke="none" stroke-width="1" fill="none" fill-rule="evenodd">
        <g id="Big_landing_v2" transform="translate(-1231.000000, -2504.000000)" fill="#51DCC3">
            <g id="services" transform="translate(135.000000, 2140.000000)">
                <g id="2" transform="translate(499.000000, 331.000000)">
                    <g id="icon" transform="translate(571.000000, 6.000000)">
                        <g id="connect-icon" transform="translate(26.000000, 27.000000)">
                            <path d="M42.1734615,42.9415385 C39.3401282,42.9415385 37.035,40.6364103 37.035,37.8030769 C37.035,34.9684615 39.3401282,32.6633333 42.1734615,32.6633333 C45.0067949,32.6633333 47.3119231,34.9684615 47.3119231,37.8030769 C47.3119231,40.6364103 45.0067949,42.9415385 42.1734615,42.9415385 M7.30935897,27.5017949 C4.47602564,27.5017949 2.16961538,25.1966667 2.16961538,22.3633333 C2.16961538,19.53 4.47602564,17.2248718 7.30935897,17.2248718 C10.1426923,17.2248718 12.4478205,19.53 12.4478205,22.3633333 C12.4478205,25.1966667 10.1426923,27.5017949 7.30935897,27.5017949 M42.1734615,2.16974359 C45.0067949,2.16974359 47.3119231,4.47487179 47.3119231,7.30948718 C47.3119231,10.1428205 45.0067949,12.4479487 42.1734615,12.4479487 C39.3401282,12.4479487 37.035,10.1428205 37.035,7.30948718 C37.035,4.47487179 39.3401282,2.16974359 42.1734615,2.16974359 M42.1734615,30.4941026 C39.5721795,30.4941026 37.285,31.8607692 35.9888462,33.9133333 L14.3170513,24.4364103 C14.5119231,23.7787179 14.6183333,23.0838462 14.6183333,22.3633333 C14.6183333,21.7671795 14.5452564,21.1889744 14.409359,20.6351282 L35.9888462,11.1979487 C37.285,13.2505128 39.5721795,14.6184615 42.1734615,14.6184615 C46.2042308,14.6184615 49.4824359,11.3389744 49.4824359,7.30948718 C49.4824359,3.27871795 46.2042308,0.000512820512 42.1734615,0.000512820512 C38.1426923,0.000512820512 34.8644872,3.27871795 34.8644872,7.30948718 C34.8644872,7.96717949 34.9529487,8.60435897 35.1170513,9.21076923 L13.5875641,18.6261538 C12.310641,16.4889744 9.97474359,15.054359 7.30935897,15.054359 C3.27858974,15.054359 0.000384615385,18.3325641 0.000384615385,22.3633333 C0.000384615385,26.3941026 3.27858974,29.6723077 7.30935897,29.6723077 C9.84653846,29.6723077 12.0862821,28.3710256 13.3965385,26.4017949 L35.1170513,35.9005128 C34.9529487,36.5069231 34.8644872,37.1441026 34.8644872,37.8030769 C34.8644872,41.8325641 38.1426923,45.1120513 42.1734615,45.1120513 C46.2042308,45.1120513 49.4824359,41.8325641 49.4824359,37.8030769 C49.4824359,33.7723077 46.2042308,30.4941026 42.1734615,30.4941026" id="Fill-1"></path>
                        </g>
                    </g>
                </g>
            </g>
        </g>
    </g>
</svg>