<?xml version="1.0" encoding="UTF-8"?>
<svg width="16px" height="15px" viewBox="0 0 16 15" version="1.1" xmlns="http://www.w3.org/2000/svg" xmlns:xlink="http://www.w3.org/1999/xlink">
    <!-- Generator: Sketch 42 (36781) - http://www.bohemiancoding.com/sketch -->
    <title>correct</title>
    <desc>Created with Sketch.</desc>
    <defs></defs>
    <g id="Page-1" stroke="none" stroke-width="1" fill="none" fill-rule="evenodd">
        <g id="Category_v2" transform="translate(-735.000000, -895.000000)" fill="#51DCC3">
            <g id="advatages" transform="translate(135.000000, 841.000000)">
                <g id="Group-22" transform="translate(600.000000, 0.000000)">
                    <g id="Group-21" transform="translate(0.000000, 50.000000)">
                        <path d="M1.95057395,12.7725109 C1.62381213,12.4461422 1.09282419,12.4461422 0.766062375,12.7725109 C0.439300562,13.0988795 0.439300562,13.6292286 0.766062375,13.9555973 L4.62593629,17.8108271 C4.7893172,17.9740115 4.99354333,18.0556036 5.21819208,18.0556036 L5.25903731,18.0556036 C5.48368605,18.0352056 5.7083348,17.9332154 5.87171571,17.749633 L15.5316118,6.18394341 C15.8175284,5.83717671 15.7766832,5.30682762 15.4294987,5.000857 C15.0823143,4.71528442 14.5513264,4.7560805 14.2449872,5.10284721 L5.15692424,15.9750034 L1.95057395,12.7725109 L1.95057395,12.7725109 Z" id="correct"></path>
                    </g>
                </g>
            </g>
        </g>
    </g>
</svg>