<?xml version="1.0" encoding="UTF-8"?>
<svg width="48px" height="57px" viewBox="0 0 48 57" version="1.1" xmlns="http://www.w3.org/2000/svg" xmlns:xlink="http://www.w3.org/1999/xlink">
    <!-- Generator: Sketch 42 (36781) - http://www.bohemiancoding.com/sketch -->
    <title>document-icon</title>
    <desc>Created with Sketch.</desc>
    <defs></defs>
    <g id="Page-1" stroke="none" stroke-width="1" fill="none" fill-rule="evenodd">
        <g id="Big_landing_v2" transform="translate(-164.000000, -2298.000000)" fill="#51DCC3">
            <g id="services" transform="translate(135.000000, 2140.000000)">
                <g id="1" transform="translate(0.000000, 131.000000)">
                    <g id="icon" transform="translate(0.000000, 6.000000)">
                        <g id="document-icon" transform="translate(29.000000, 21.000000)">
                            <path d="M42.2593407,54.1159462 L5.21025641,54.1159462 C3.7040293,54.1159462 2.48058608,52.8941 2.48058608,51.3931 L2.48058608,5.19679231 C2.48058608,3.69579231 3.7040293,2.47394615 5.21025641,2.47394615 L28.0996337,2.47394615 L28.0996337,12.0309462 C28.0996337,16.0516385 31.3772894,19.3211 35.4080586,19.3211 L44.989011,19.3211 L44.989011,51.3931 C44.989011,52.8941 43.7641026,54.1159462 42.2593407,54.1159462 L42.2593407,54.1159462 Z M43.2351648,16.8481769 L35.4080586,16.8481769 C32.7457875,16.8481769 30.5787546,14.6865615 30.5787546,12.0309462 L30.5787546,4.22340769 L43.2351648,16.8481769 Z M47.4666667,18.0422538 C47.4666667,18.0291 47.4652015,18.0144846 47.4652015,18.0013308 C47.4608059,17.9487154 47.4549451,17.8961 47.4461538,17.8449462 C47.4446886,17.8449462 47.4446886,17.8434846 47.4446886,17.8434846 C47.4344322,17.7908692 47.4197802,17.7397154 47.4021978,17.6900231 C47.3978022,17.6768692 47.3934066,17.6637154 47.389011,17.6505615 C47.3714286,17.6037923 47.3509158,17.5570231 47.3274725,17.5131769 C47.3260073,17.5102538 47.3245421,17.5058692 47.3230769,17.5029462 C47.2981685,17.4561769 47.2688645,17.4108692 47.2380952,17.3684846 C47.2307692,17.3567923 47.221978,17.3451 47.2131868,17.3334077 C47.1794872,17.2910231 47.1443223,17.2486385 47.1062271,17.2091769 L30.2168498,0.362023077 C30.1772894,0.322561538 30.1347985,0.288946154 30.0908425,0.255330769 C30.0805861,0.246561538 30.0688645,0.239253846 30.0586081,0.230484615 C30.014652,0.199792308 29.9692308,0.170561538 29.9223443,0.145715385 C29.9194139,0.144253846 29.9164835,0.142792308 29.9150183,0.141330769 C29.8695971,0.117946154 29.8212454,0.0974846154 29.774359,0.0799461538 C29.7611722,0.0755615385 29.7494505,0.0711769231 29.7362637,0.0667923077 C29.6351648,0.0317153846 29.5296703,0.0112538462 29.4227106,0.00394615385 C29.4080586,0.00394615385 29.3948718,0.00248461538 29.381685,0.00248461538 C29.367033,0.00102307692 29.3538462,-0.000438461539 29.3391941,-0.000438461539 L5.21025641,-0.000438461539 C2.33699634,-0.000438461539 0,2.33071538 0,5.19679231 L0,51.3931 C0,54.2591769 2.33699634,56.5903308 5.21025641,56.5903308 L42.2593407,56.5903308 C45.1326007,56.5903308 47.4695971,54.2591769 47.4695971,51.3931 L47.4695971,18.0846385 C47.4695971,18.0700231 47.4681319,18.0568692 47.4666667,18.0422538 L47.4666667,18.0422538 Z" id="Fill-1"></path>
                            <path d="M33.6744322,22.9812308 L12.8334066,22.9812308 C12.1491575,22.9812308 11.5938462,23.5351538 11.5938462,24.2176923 C11.5938462,24.9016923 12.1491575,25.4556154 12.8334066,25.4556154 L33.6744322,25.4556154 C34.3586813,25.4556154 34.9139927,24.9016923 34.9139927,24.2176923 C34.9139927,23.5351538 34.3586813,22.9812308 33.6744322,22.9812308" id="Fill-4"></path>
                            <path d="M33.6744322,31.1345692 L12.8334066,31.1345692 C12.1491575,31.1345692 11.5938462,31.6884923 11.5938462,32.3710308 C11.5938462,33.0550308 12.1491575,33.6089538 12.8334066,33.6089538 L33.6744322,33.6089538 C34.3586813,33.6089538 34.9139927,33.0550308 34.9139927,32.3710308 C34.9139927,31.6884923 34.3586813,31.1345692 33.6744322,31.1345692" id="Fill-6"></path>
                        </g>
                    </g>
                </g>
            </g>
        </g>
    </g>
</svg>