<?xml version="1.0" encoding="UTF-8"?>
<svg width="175px" height="42px" viewBox="0 0 175 42" version="1.1" xmlns="http://www.w3.org/2000/svg" xmlns:xlink="http://www.w3.org/1999/xlink">
    <!-- Generator: Sketch 42 (36781) - http://www.bohemiancoding.com/sketch -->
    <title>logo</title>
    <desc>Created with Sketch.</desc>
    <defs></defs>
    <g id="Page-1" stroke="none" stroke-width="1" fill="none" fill-rule="evenodd">
        <g id="Big_landing_1280px" transform="translate(-170.000000, -3559.000000)">
            <g id="footer" transform="translate(0.000000, 3517.000000)">
                <g id="Group-6">
                    <g transform="translate(170.000000, 42.000000)">
                        <g id="logo">
                            <g id="Iturbu">
                                <g id="Слой_x0020_1">
                                    <path d="M61.5944304,41.4610794 L45.7030562,41.4610794 L32.4563159,41.4610794 L32.4563159,36.9123912 C27.6114592,33.1131451 24.5083565,27.2767449 24.5083565,20.7305833 C24.5083565,9.28146284 33.9975635,8.71621622e-05 45.7030562,8.71621622e-05 C53.6341286,8.71621622e-05 60.5465397,4.26166318 64.1804496,10.5706566 C71.7316962,11.7769809 77.4951392,18.186298 77.4951392,25.9133108 C77.4951392,34.500113 70.3782339,41.4611448 61.5991534,41.4611448 L61.59442,41.4610862 L61.5944304,41.4610794 Z" id="Shape" fill="#000000"></path>
                                    <path d="M36.6505519,37.3585743 L61.6209418,37.3585743 L61.6522185,37.3589846 C68.1207087,37.4390389 73.3009011,32.1873266 73.3009011,25.9131545 C73.3009011,20.7870388 69.8176828,16.3347084 64.8965001,14.9286084 C64.6815169,16.2495052 63.6537574,17.5959449 62.4996251,18.1477249 C62.1408413,16.1173565 61.5361566,14.380707 60.5262507,12.5841205 C57.5101454,7.34770111 51.8670062,4.10228338 45.7030183,4.10228338 C36.3126163,4.10228338 28.7025323,11.5456923 28.7025323,20.730427 C28.7025323,25.8018048 31.0411712,30.5444724 35.0798811,33.7115967 L36.6504917,34.9432373 L36.6504917,37.358588 L36.6505519,37.3585743 Z" id="Shape" fill="#51DCC3"></path>
                                    <path d="M32.4561823,5.18266216 C42.6984911,5.18266216 51.0015251,13.3038441 51.0015251,23.3218272 C51.0015251,33.3398103 42.6984911,41.4609922 32.4561823,41.4609922 C22.2138734,41.4609922 13.9108395,33.3398103 13.9108395,23.3218272 C13.9108395,22.4419317 13.9762092,21.5770412 14.0999983,20.7306704 L11.2615416,20.7306704 L11.2615416,15.5480083 L11.2615416,10.3653461 L11.2615416,5.18268395 L32.4561745,5.18268395 L32.4561823,5.18266216 Z" id="Shape" fill="#000000"></path>
                                    <path d="M15.4558299,9.2850147 L15.4558299,16.6283397 L20.4340456,16.6283397 L20.4340456,20.7306922 L18.3370033,20.7306922 C18.2084808,21.6094154 18.1051245,22.4261336 18.1051245,23.321849 C18.1051245,31.0754463 24.5290353,37.3586615 32.4562536,37.3586615 C40.3834718,37.3586615 46.8073827,31.0754463 46.8073827,23.321849 C46.8073827,15.5682517 40.3834718,9.28503649 32.4562536,9.28503649 L15.4558121,9.28503649 L15.4558299,9.2850147 Z" id="Shape" fill="#F5EE59"></path>
                                    <polygon id="Shape" fill="#EB262A" points="0 12.9566772 7.50775899 9.2850147 7.50775899 16.6283179"></polygon>
                                    <ellipse id="Oval" fill="#FFFFFF" cx="32.4561823" cy="23.3217618" rx="2.98524962" ry="2.91986706"></ellipse>
                                    <path d="M32.4561823,12.5217598 C38.5529337,12.5217598 43.4980881,17.3586061 43.4980881,23.3218272 L43.4962307,23.3218272 C43.4962307,23.8872481 43.0276184,24.3455969 42.4495364,24.3455969 C41.8714544,24.3455969 41.4028421,23.8872481 41.4028421,23.3218272 L41.4009847,23.3218272 C41.4009847,18.4906682 37.3955143,14.5729252 32.4561745,14.5729252 L32.4561745,14.5711084 C31.8780925,14.5711084 31.4094803,14.1127596 31.4094803,13.5473387 C31.4094803,12.9819178 31.8780925,12.523569 32.4561745,12.523569 L32.4561745,12.5217522 L32.4561823,12.5217598 Z" id="Shape" fill="#F7D116"></path>
                                    <path d="M32.4561823,16.6241123 C36.2380881,16.6241123 39.3038744,19.6227522 39.3038744,23.3218272 C39.3038744,27.0209022 36.2380881,30.0195421 32.4561823,30.0195421 C28.6742765,30.0195421 25.6084901,27.0209022 25.6084901,23.3218272 C25.6084901,19.6227522 28.6742765,16.6241123 32.4561823,16.6241123 L32.4561823,16.6241123 Z M32.4561823,20.7264649 C33.9216385,20.7264649 35.109683,21.8884825 35.109683,23.321849 C35.109683,24.755209 33.9216452,25.9172331 32.4561823,25.9172331 C30.9907261,25.9172331 29.8026815,24.7552155 29.8026815,23.321849 C29.8026815,21.888489 30.9907194,20.7264649 32.4561823,20.7264649 Z" id="Shape" fill="#000000"></path>
                                    <path d="M71.2038076,25.9133108 C71.2038076,31.1015949 66.9036597,35.3075615 61.599198,35.3075615 C61.0200978,35.3075615 60.5506457,34.8483912 60.5506457,34.2819744 C60.5506457,33.7155577 61.0200978,33.2563874 61.599198,33.2563874 C65.7454684,33.2563874 69.1067119,29.9687614 69.1067119,25.9133021 C69.1067119,25.3468853 69.5761641,24.8877151 70.1552642,24.8877151 C70.7343644,24.8877151 71.2038165,25.3468853 71.2038165,25.9133021 L71.2038076,25.9133108 Z" id="Shape" fill="#FFFFFF"></path>
                                    <g id="_246407896" transform="translate(85.915371, 9.961390)">
                                        <path d="M0.702695118,19.9653026 L4.87503132,19.9653026 L4.87503132,7.07632862 L0.702695118,7.07632862 L0.702695118,19.9653026 Z" id="_309196400" fill="#FFFFFF"></path>
                                        <ellipse id="_309196328" fill="#EB262A" cx="2.78885208" cy="3.11001443" rx="2.38185924" ry="2.32969206"></ellipse>
                                        <path d="M6.961166,2.99533082 L6.961166,7.07628504 L11.4637584,7.07628504 L11.4637584,19.965259 L15.6360946,19.965259 L15.6360946,7.07628504 L20.1387539,7.07628504 L20.1387539,2.99533082 L6.961166,2.99533082 L6.961166,2.99533082 Z" id="_309195968" fill="#FFFFFF"></path>
                                        <path d="M36.9473331,13.1167536 C36.9473331,17.0609722 33.6783002,20.2584072 29.6457614,20.2584072 C25.6131559,20.2584072 22.344123,17.0609722 22.344123,13.1167536 L22.344123,2.99526544 L26.5164592,2.99526544 L26.5164592,13.1167536 C26.5164592,14.8071548 27.9175038,16.1774529 29.6457614,16.1774529 C31.3739545,16.1774529 32.7749969,14.8071526 32.7749969,13.1167536 L32.7749969,2.99526544 L36.9473331,2.99526544 L36.9473331,13.1167536 Z" id="_309195872" fill="#FFFFFF"></path>
                                        <path d="M47.9145837,7.07628504 L43.7422475,7.07628504 L43.7422475,11.1572393 L47.9145837,11.1572393 C49.0667911,11.1572393 50.0007808,10.2437057 50.0007808,9.11673382 C50.0007808,7.98981859 49.0667911,7.07628504 47.9145837,7.07628504 Z M50.0031178,19.9692467 L47.2104879,15.2381935 L43.7422408,15.2381935 L43.7422408,19.965259 L39.5699046,19.965259 L39.5699046,2.99533082 L47.914577,2.99533082 C51.3710834,2.99533082 54.1731148,5.73599247 54.1731148,9.11672946 C54.1731148,11.2304925 53.0777687,13.094135 51.4119421,14.193969 L51.5279419,14.3905885 L53.614139,17.9248181 L54.820873,19.9692502 L50.0031069,19.9692502 L50.0031178,19.9692467 Z" id="_309190736" fill="#FFFFFF"></path>
                                        <path d="M60.9940571,19.9653026 L56.8217209,19.9653026 L56.8217209,15.905093 L56.8217209,13.5208592 L56.8217209,9.43990497 L56.8217209,7.07630683 L56.8217209,2.99535261 L60.9940571,2.99535261 L64.9906607,2.99535261 C67.9681351,2.99535261 70.3818303,5.35618335 70.3818303,8.26844551 C70.3818303,9.20213967 70.1334141,10.0789278 69.698175,10.8396203 C70.7600276,11.8009166 71.4249288,13.1756752 71.4249288,14.7025602 C71.4249288,17.5607818 69.0955354,19.8866388 66.1922483,19.9632325 L66.1922483,19.9652837 L66.0444326,19.9652837 L60.9940792,19.9652837 L60.9940571,19.9653026 Z M66.0337614,13.5208592 C66.7069325,13.5208592 67.2525971,14.0545749 67.2525971,14.7130001 C67.2525971,15.3714274 66.7069303,15.9051409 66.0337614,15.9051409 L66.0292677,15.9050823 L60.9940636,15.9050823 L60.9940636,13.5209139 L66.0292677,13.5209139 L66.0337614,13.5208553 L66.0337614,13.5208592 Z M64.9906629,7.09705142 C65.6520887,7.09705142 66.1882894,7.62150615 66.1882894,8.26844769 C66.1882894,8.91538705 65.652091,9.43990061 64.9906629,9.43990061 L60.9940594,9.43990061 L60.9940594,7.09704707 L64.9906629,7.09704707 L64.9906629,7.09705142 Z" id="_309195896" fill="#FFFFFF"></path>
                                        <path d="M88.1239002,13.1167536 C88.1239002,17.0609722 84.8548673,20.2584072 80.8222617,20.2584072 C76.789723,20.2584072 73.5206901,17.0609722 73.5206901,13.1167536 L73.5206901,2.99526544 L77.6930263,2.99526544 L77.6930263,13.1167536 C77.6930263,14.8071548 79.0940709,16.1774529 80.8222617,16.1774529 C82.5505149,16.1774529 83.951564,14.8071526 83.951564,13.1167536 L83.951564,2.99526544 L88.1239002,2.99526544 L88.1239002,13.1167536 Z" id="_309194912" fill="#FFFFFF"></path>
                                    </g>
                                </g>
                            </g>
                        </g>
                    </g>
                </g>
            </g>
        </g>
    </g>
</svg>