<?xml version="1.0" encoding="UTF-8"?>
<svg width="102px" height="102px" viewBox="0 0 102 102" version="1.1" xmlns="http://www.w3.org/2000/svg" xmlns:xlink="http://www.w3.org/1999/xlink">
    <!-- Generator: Sketch 41 (35326) - http://www.bohemiancoding.com/sketch -->
    <title>ico-reliab</title>
    <desc>Created with Sketch.</desc>
    <defs></defs>
    <g id="Page-1" stroke="none" stroke-width="1" fill="none" fill-rule="evenodd">
        <g id="index" transform="translate(-534.000000, -1377.000000)">
            <g id="features" transform="translate(0.000000, 1107.000000)">
                <g transform="translate(136.000000, 271.000000)" id="Group-3-Copy">
                    <g transform="translate(399.000000, 0.000000)">
                        <g id="ico-reliab">
                            <ellipse id="Oval" stroke-opacity="0.3" stroke="#FFFFFF" fill-opacity="0.2" fill="#FFFFFF" cx="50" cy="50" rx="50" ry="50"></ellipse>
                            <path d="M49.82,38.0180769 C43.3123077,38.0180769 38.0187179,43.3129487 38.0187179,49.819359 C38.0187179,56.3270513 43.3123077,61.6219231 49.82,61.6219231 C56.3276923,61.6219231 61.6212821,56.3270513 61.6212821,49.819359 C61.6212821,43.3129487 56.3276923,38.0180769 49.82,38.0180769 M49.82,63.7924359 C42.1161538,63.7924359 35.8482051,57.5244872 35.8482051,49.819359 C35.8482051,42.1155128 42.1161538,35.8475641 49.82,35.8475641 C57.5238462,35.8475641 63.7917949,42.1155128 63.7917949,49.819359 C63.7917949,57.5244872 57.5238462,63.7924359 49.82,63.7924359 M39.4482051,65.1360256 C39.6469231,65.1360256 39.8482051,65.1911538 40.0276923,65.3052564 C41.8135897,66.4360256 43.7533333,67.2424359 45.794359,67.7001282 C46.3341026,67.820641 46.6969231,68.3296154 46.6353846,68.8796154 C46.6289744,68.9347436 46.6212821,68.9898718 46.6135897,69.045 C46.6033333,69.1244872 46.5930769,69.1988462 46.5930769,69.2424359 C46.5930769,71.0219231 48.0405128,72.470641 49.82,72.470641 C51.5994872,72.470641 53.0469231,71.0219231 53.0469231,69.2424359 C53.0469231,69.1988462 53.0366667,69.1232051 53.0264103,69.0437179 C53.0187179,68.9898718 53.0110256,68.9347436 53.0046154,68.8808974 C52.9430769,68.3308974 53.3046154,67.820641 53.845641,67.7001282 C55.8866667,67.2424359 57.8276923,66.4360256 59.6123077,65.3052564 C60.0815385,65.0078205 60.6982051,65.1116667 61.0430769,65.5475641 C61.0764103,65.5885897 61.1084615,65.6308974 61.1405128,65.6732051 C61.1905128,65.7398718 61.2392308,65.8026923 61.2725641,65.8360256 C62.5302564,67.0937179 64.5776923,67.0937179 65.8366667,65.8360256 C67.094359,64.5783333 67.094359,62.5308974 65.8353846,61.2719231 C65.8033333,61.2385897 65.7405128,61.1911538 65.6725641,61.1398718 C65.6302564,61.1078205 65.5879487,61.0757692 65.5469231,61.0424359 C65.1123077,60.6975641 65.0084615,60.0808974 65.3046154,59.6116667 C66.4366667,57.8270513 67.2417949,55.8860256 67.6994872,53.8462821 C67.8212821,53.3052564 68.3328205,52.9424359 68.8815385,53.0052564 C68.9353846,53.0116667 68.9892308,53.0180769 69.0417949,53.0257692 C69.1225641,53.0360256 69.1982051,53.0462821 69.2430769,53.0462821 C71.0225641,53.0462821 72.47,51.5988462 72.47,49.819359 C72.47,48.0411538 71.0225641,46.5924359 69.2430769,46.5924359 C69.1994872,46.5924359 69.1238462,46.6026923 69.045641,46.6142308 C68.9905128,46.6219231 68.9353846,46.6283333 68.8802564,46.6347436 C68.3302564,46.695 67.8212821,46.3347436 67.6994872,45.7937179 C67.2417949,43.7526923 66.4366667,41.8129487 65.3046154,40.0270513 C65.0071795,39.5591026 65.1123077,38.9411538 65.5482051,38.5962821 C65.5892308,38.5629487 65.6302564,38.5321795 65.6725641,38.5001282 C65.7392308,38.4488462 65.8033333,38.4014103 65.8366667,38.3667949 C67.094359,37.1091026 67.094359,35.0629487 65.8353846,33.8039744 C65.2264103,33.195 64.4161538,32.8591026 63.5546154,32.8591026 C62.6917949,32.8591026 61.8815385,33.195 61.2725641,33.8039744 C61.2392308,33.8373077 61.1905128,33.9001282 61.1405128,33.9667949 C61.1084615,34.0091026 61.0764103,34.0514103 61.0430769,34.0937179 C60.6982051,34.5283333 60.0802564,34.6321795 59.6123077,34.3347436 C57.8264103,33.2039744 55.8866667,32.3975641 53.845641,31.9398718 C53.3046154,31.819359 52.9430769,31.3091026 53.0046154,30.7591026 C53.0110256,30.7052564 53.0187179,30.6501282 53.0264103,30.5962821 C53.0366667,30.5167949 53.0469231,30.4411538 53.0469231,30.3975641 C53.0469231,28.6180769 51.5994872,27.170641 49.82,27.170641 C48.0405128,27.170641 46.5930769,28.6180769 46.5930769,30.3975641 C46.5930769,30.4411538 46.6033333,30.5155128 46.6135897,30.595 C46.6212821,30.6501282 46.6289744,30.7052564 46.6353846,30.7603846 C46.6969231,31.3103846 46.3341026,31.819359 45.794359,31.9398718 C43.7533333,32.3975641 41.8135897,33.2039744 40.0276923,34.3347436 C39.5597436,34.6321795 38.9417949,34.5283333 38.5969231,34.0937179 C38.5635897,34.0514103 38.5315385,34.0091026 38.4994872,33.9667949 C38.4494872,33.9001282 38.4007692,33.8373077 38.3674359,33.8039744 C37.7584615,33.195 36.9482051,32.8591026 36.0853846,32.8591026 C35.2238462,32.8591026 34.4135897,33.195 33.8046154,33.8039744 C33.194359,34.4142308 32.8584615,35.2244872 32.8584615,36.0860256 C32.8584615,36.9475641 33.194359,37.7578205 33.8046154,38.3680769 C33.8366667,38.4014103 33.9007692,38.4488462 33.9674359,38.5001282 C34.0097436,38.5321795 34.0507692,38.5629487 34.0917949,38.5962821 C34.5276923,38.9411538 34.6328205,39.5591026 34.3353846,40.0270513 C33.2033333,41.8129487 32.3982051,43.7526923 31.9405128,45.7937179 C31.8187179,46.3347436 31.3097436,46.695 30.7597436,46.6347436 C30.7046154,46.6283333 30.6494872,46.6219231 30.594359,46.6142308 C30.5161538,46.6026923 30.4405128,46.5924359 30.3969231,46.5924359 C28.6174359,46.5924359 27.17,48.0411538 27.17,49.819359 C27.17,51.5988462 28.6174359,53.0462821 30.3969231,53.0462821 C30.4417949,53.0462821 30.5174359,53.0360256 30.5982051,53.0257692 C30.6507692,53.0180769 30.7046154,53.0116667 30.7584615,53.0052564 C31.3071795,52.9411538 31.8187179,53.3052564 31.9405128,53.8462821 C32.3982051,55.8860256 33.2033333,57.8270513 34.3353846,59.6116667 C34.6315385,60.0808974 34.5276923,60.6975641 34.0930769,61.0424359 C34.0520513,61.0757692 34.0097436,61.1078205 33.9674359,61.1398718 C33.8994872,61.1911538 33.8366667,61.2385897 33.8033333,61.2732051 C33.194359,61.8821795 32.8584615,62.6924359 32.8584615,63.5539744 C32.8584615,64.4155128 33.194359,65.2270513 33.8033333,65.8360256 C35.0623077,67.0937179 37.1097436,67.0937179 38.3674359,65.8360256 C38.4007692,65.8026923 38.4494872,65.7398718 38.4994872,65.6732051 C38.5315385,65.6308974 38.5635897,65.5885897 38.5969231,65.5475641 C38.8097436,65.2783333 39.1264103,65.1360256 39.4482051,65.1360256 M49.82,74.6398718 C46.9635897,74.6398718 44.6174359,72.4091026 44.4341026,69.5975641 C42.7635897,69.1437179 41.1597436,68.4770513 39.6469231,67.6091026 C37.5302564,69.470641 34.2905128,69.3911538 32.27,67.370641 C31.2494872,66.3514103 30.6892308,64.9962821 30.6892308,63.5539744 C30.6892308,62.2296154 31.1623077,60.9770513 32.0302564,59.9924359 C31.1623077,58.4796154 30.4969231,56.8757692 30.0417949,55.2052564 C27.2315385,55.0219231 24.9994872,52.6770513 24.9994872,49.819359 C24.9994872,46.9629487 27.2302564,44.6180769 30.0417949,44.4347436 C30.4969231,42.7629487 31.1623077,41.1591026 32.0302564,39.6475641 C31.1623077,38.6616667 30.6892308,37.4103846 30.6892308,36.0860256 C30.6892308,34.6437179 31.2494872,33.2885897 32.27,32.269359 C33.2892308,31.2501282 34.644359,30.6885897 36.0853846,30.6885897 C37.4110256,30.6885897 38.6623077,31.1629487 39.6482051,32.0308974 C41.1597436,31.1629487 42.7635897,30.4962821 44.4341026,30.0424359 C44.6174359,27.2308974 46.9635897,25.0001282 49.82,25.0001282 C52.6764103,25.0001282 55.0225641,27.2308974 55.2058974,30.0424359 C56.8764103,30.4962821 58.4802564,31.1629487 59.9917949,32.0308974 C60.9776923,31.1629487 62.2289744,30.6885897 63.5546154,30.6885897 C64.995641,30.6885897 66.3507692,31.2501282 67.37,32.269359 C69.3917949,34.2911538 69.4712821,37.5296154 67.6097436,39.6475641 C68.4776923,41.1591026 69.1430769,42.7629487 69.5982051,44.4347436 C72.4097436,44.6180769 74.6405128,46.9629487 74.6405128,49.819359 C74.6405128,52.6770513 72.4084615,55.0219231 69.5982051,55.2052564 C69.1430769,56.8757692 68.4776923,58.4796154 67.6097436,59.9924359 C69.4712821,62.1116667 69.3917949,65.3501282 67.37,67.370641 C65.3494872,69.3911538 62.1097436,69.470641 59.9930769,67.6091026 C58.4802564,68.4770513 56.8764103,69.1437179 55.2058974,69.5975641 C55.0225641,72.4091026 52.6764103,74.6398718 49.82,74.6398718" id="Settings" fill="#51DCC3"></path>
                        </g>
                    </g>
                </g>
            </g>
        </g>
    </g>
</svg>