<?xml version="1.0" encoding="UTF-8"?>
<svg width="102px" height="102px" viewBox="0 0 102 102" version="1.1" xmlns="http://www.w3.org/2000/svg" xmlns:xlink="http://www.w3.org/1999/xlink">
    <!-- Generator: Sketch 41 (35326) - http://www.bohemiancoding.com/sketch -->
    <title>ico-secure</title>
    <desc>Created with Sketch.</desc>
    <defs></defs>
    <g id="Page-1" stroke="none" stroke-width="1" fill="none" fill-rule="evenodd">
        <g id="index" transform="translate(-933.000000, -1377.000000)">
            <g id="features" transform="translate(0.000000, 1107.000000)">
                <g transform="translate(136.000000, 271.000000)" id="Group-3-Copy-2">
                    <g transform="translate(798.000000, 0.000000)">
                        <g id="ico-secure">
                            <path d="M49.2457692,72.4835897 C39.8329487,72.4835897 32.1842308,64.8335897 32.1842308,55.4220513 C32.1842308,46.0092308 39.8329487,38.3464103 49.2457692,38.3464103 C58.6585897,38.3464103 66.3073077,45.9951282 66.3073077,55.4079487 C66.3073077,64.8207692 58.6585897,72.4835897 49.2457692,72.4835897 L49.2457692,72.4835897 Z M38.3816667,38.0476923 C38.3816667,32.065641 43.2508974,27.1835897 49.2457692,27.1835897 C55.240641,27.1835897 60.1098718,32.0528205 60.1098718,38.0476923 L60.1098718,39.5528205 C57.0175641,37.4233333 53.2739744,36.1887179 49.2457692,36.1887179 C45.2175641,36.1887179 41.4739744,37.4374359 38.3816667,39.5528205 L38.3816667,38.0476923 L38.3816667,38.0476923 Z M62.2791026,41.2758974 L62.2791026,38.0335897 C62.2791026,30.8451282 56.4342308,25.0002564 49.2457692,25.0002564 C42.0573077,25.0002564 36.2124359,30.8451282 36.2124359,38.0335897 L36.2124359,41.2758974 C32.4008974,44.7887179 29.9996154,49.8335897 29.9996154,55.4079487 C29.9996154,66.014359 38.6265385,74.64 49.2316667,74.64 C59.8380769,74.64 68.4637179,66.014359 68.4637179,55.4079487 C68.4778205,49.8335897 66.090641,44.8015385 62.2791026,41.2758974 L62.2791026,41.2758974 Z" id="Fill-1" fill="#51DCC3"></path>
                            <path d="M50.6494872,54.6258974 C51.7379487,54.0835897 52.4751282,52.9387179 52.4187179,51.6271795 C52.3494872,50.0130769 51.0482051,48.6848718 49.4366667,48.5848718 C47.5828205,48.4682051 46.0430769,49.9387179 46.0430769,51.7682051 C46.0430769,53.0207692 46.7648718,54.1041026 47.8148718,54.6258974 L44.7905128,61.8938462 C44.67,62.1823077 44.8828205,62.5002564 45.194359,62.5002564 L53.27,62.5002564 C53.5815385,62.5002564 53.794359,62.1823077 53.6738462,61.8938462 L50.6494872,54.6258974 Z" id="Fill-4" fill="#51DCC3"></path>
                            <ellipse id="Oval" stroke-opacity="0.3" stroke="#FFFFFF" fill-opacity="0.2" fill="#FFFFFF" cx="50" cy="50" rx="50" ry="50"></ellipse>
                        </g>
                    </g>
                </g>
            </g>
        </g>
    </g>
</svg>