<?xml version="1.0" encoding="UTF-8"?>
<svg width="100px" height="100px" viewBox="0 0 100 100" version="1.1" xmlns="http://www.w3.org/2000/svg" xmlns:xlink="http://www.w3.org/1999/xlink">
    <!-- Generator: Sketch 41 (35326) - http://www.bohemiancoding.com/sketch -->
    <title>ico-network</title>
    <desc>Created with Sketch.</desc>
    <defs></defs>
    <g id="Page-1" stroke="none" stroke-width="1" fill="none" fill-rule="evenodd">
        <g id="index" transform="translate(-1043.000000, -2170.000000)">
            <g id="what-we-do" transform="translate(0.000000, 1900.000000)">
                <g id="Group-11" transform="translate(905.000000, 99.000000)">
                    <g id="Group-10-Copy-2" transform="translate(107.000000, 171.000000)">
                        <g id="ico-network" transform="translate(31.000000, 0.000000)">
                            <ellipse id="Oval-3" fill="#51DCC3" cx="50" cy="50" rx="50" ry="50"></ellipse>
                            <g id="Globe" transform="translate(25.000000, 25.000000)" fill="#FFFFFF">
                                <path d="M31.4973077,46.4651282 C32.6139744,45.3074359 33.6434615,43.8471795 34.5537179,42.1061538 C35.4191026,40.4484615 36.1447436,38.5997436 36.7216667,36.61 L44.1524359,36.61 C41.3011538,41.2676923 36.8152564,44.8215385 31.4973077,46.4651282 L31.4973077,46.4651282 Z M5.48705128,36.61 L12.9178205,36.61 C13.4947436,38.5997436 14.2203846,40.4484615 15.0870513,42.1061538 C15.9973077,43.8471795 17.0255128,45.3074359 18.1421795,46.4651282 C12.8255128,44.8215385 8.33833333,41.2676923 5.48705128,36.61 L5.48705128,36.61 Z M18.1421795,3.17538462 C17.0255128,4.33307692 15.9973077,5.79205128 15.0870513,7.53435897 C14.2203846,9.19076923 13.4947436,11.0407692 12.9178205,13.0305128 L5.48705128,13.0305128 C8.33833333,8.37153846 12.8255128,4.81897436 18.1421795,3.17538462 L18.1421795,3.17538462 Z M44.1524359,13.0305128 L36.7216667,13.0305128 C36.1447436,11.0407692 35.4191026,9.19076923 34.5537179,7.53435897 C33.6434615,5.79205128 32.6139744,4.33307692 31.4973077,3.17538462 C36.8152564,4.81897436 41.3011538,8.37153846 44.1524359,13.0305128 L44.1524359,13.0305128 Z M38.2973077,23.735641 C38.229359,20.7612821 37.880641,17.8792308 37.2780769,15.1997436 L45.3229487,15.1997436 C46.5537179,17.8125641 47.2998718,20.6958974 47.4434615,23.735641 L38.2973077,23.735641 Z M25.905,34.4394872 L25.905,25.9048718 L36.1267949,25.9048718 C36.055,28.8997436 35.6883333,31.785641 35.0524359,34.4394872 L25.905,34.4394872 Z M25.905,47.3625641 L25.905,36.61 L34.4588462,36.61 C33.955,38.2292308 33.3421795,39.7369231 32.629359,41.1010256 C30.7537179,44.6907692 28.3985897,46.8715385 25.905,47.3625641 L25.905,47.3625641 Z M23.7344872,36.61 L23.7344872,47.3625641 C21.2421795,46.8715385 18.8857692,44.6907692 17.0101282,41.1010256 C16.2973077,39.7369231 15.6857692,38.2292308 15.1819231,36.61 L23.7344872,36.61 Z M13.5139744,25.9048718 L23.7344872,25.9048718 L23.7344872,34.4394872 L14.5870513,34.4394872 C13.9524359,31.785641 13.5844872,28.8997436 13.5139744,25.9048718 L13.5139744,25.9048718 Z M23.7344872,15.1997436 L23.7344872,23.735641 L13.5139744,23.735641 C13.5844872,20.7407692 13.9524359,17.8548718 14.5870513,15.1997436 L23.7344872,15.1997436 Z M23.7344872,2.27666667 L23.7344872,13.0305128 L15.1819231,13.0305128 C15.6857692,11.4112821 16.2973077,9.90358974 17.0101282,8.53948718 C18.8857692,4.94974359 21.2421795,2.76897436 23.7344872,2.27666667 L23.7344872,2.27666667 Z M35.0524359,15.1997436 C35.6883333,17.8548718 36.055,20.7407692 36.1267949,23.735641 L25.905,23.735641 L25.905,15.1997436 L35.0524359,15.1997436 Z M25.905,13.0305128 L25.905,2.27666667 C28.3985897,2.76897436 30.7537179,4.94974359 32.629359,8.53948718 C33.3421795,9.90358974 33.955,11.4112821 34.4588462,13.0305128 L25.905,13.0305128 Z M4.31782051,15.1997436 L12.3614103,15.1997436 C11.7588462,17.8792308 11.4114103,20.7612821 11.3434615,23.735641 L2.19602564,23.735641 C2.34089744,20.6958974 3.08705128,17.8125641 4.31782051,15.1997436 L4.31782051,15.1997436 Z M2.19602564,25.9048718 L11.3434615,25.9048718 C11.4114103,28.8792308 11.7588462,31.76 12.3614103,34.4394872 L4.31782051,34.4394872 C3.08705128,31.8279487 2.34089744,28.9446154 2.19602564,25.9048718 L2.19602564,25.9048718 Z M45.3229487,34.4394872 L37.2780769,34.4394872 C37.880641,31.76 38.229359,28.8792308 38.2973077,25.9048718 L47.4434615,25.9048718 C47.2998718,28.9446154 46.5537179,31.8279487 45.3229487,34.4394872 L45.3229487,34.4394872 Z M24.8203846,-0.000256410256 C11.1344872,-0.000256410256 -0.000128205128,11.134359 -0.000128205128,24.8202564 C-0.000128205128,38.5061538 11.1344872,49.6394872 24.8203846,49.6394872 C38.5062821,49.6394872 49.6396154,38.5061538 49.6396154,24.8202564 C49.6396154,11.134359 38.5062821,-0.000256410256 24.8203846,-0.000256410256 L24.8203846,-0.000256410256 Z" id="Fill-1"></path>
                            </g>
                        </g>
                    </g>
                </g>
            </g>
        </g>
    </g>
</svg>