<?xml version="1.0" encoding="UTF-8"?>
<svg width="102px" height="102px" viewBox="0 0 102 102" version="1.1" xmlns="http://www.w3.org/2000/svg" xmlns:xlink="http://www.w3.org/1999/xlink">
    <!-- Generator: Sketch 41 (35326) - http://www.bohemiancoding.com/sketch -->
    <title>ico-stab</title>
    <desc>Created with Sketch.</desc>
    <defs></defs>
    <g id="Page-1" stroke="none" stroke-width="1" fill="none" fill-rule="evenodd">
        <g id="index" transform="translate(-135.000000, -1377.000000)">
            <g id="features" transform="translate(0.000000, 1107.000000)">
                <g transform="translate(136.000000, 271.000000)" id="Group-3">
                    <g>
                        <g id="ico-stab">
                            <ellipse id="Oval" stroke-opacity="0.3" stroke="#FFFFFF" fill-opacity="0.2" fill="#FFFFFF" cx="50" cy="50" rx="50" ry="50"></ellipse>
                            <g id="Speedometer" transform="translate(25.000000, 25.000000)" fill="#51DCC3">
                                <path d="M24.82,47.4701282 C12.3302564,47.4701282 2.17,37.3098718 2.17,24.8201282 C2.17,12.3303846 12.3302564,2.17012821 24.82,2.17012821 C37.3097436,2.17012821 47.47,12.3303846 47.47,24.8201282 C47.47,37.3098718 37.3097436,47.4701282 24.82,47.4701282 M24.82,-0.000384615385 C11.1341026,-0.000384615385 -0.000512820513,11.1342308 -0.000512820513,24.8201282 C-0.000512820513,38.5060256 11.1341026,49.640641 24.82,49.640641 C38.5058974,49.640641 49.6405128,38.5060256 49.6405128,24.8201282 C49.6405128,11.1342308 38.5058974,-0.000384615385 24.82,-0.000384615385" id="Fill-1"></path>
                                <path d="M30.0016667,23.7348718 C29.8644872,23.0784615 29.6055128,22.4682051 29.2491026,21.9258974 L34.0055128,17.1694872 C34.4285897,16.7451282 34.4285897,16.0592308 34.0055128,15.6348718 C33.5811538,15.2117949 32.8939744,15.2117949 32.4708974,15.6348718 L27.7144872,20.3912821 C26.8824359,19.8451282 25.8875641,19.5258974 24.8196154,19.5258974 C22.2734615,19.5258974 20.1401282,21.3348718 19.6388462,23.7348718 L8.24525641,23.7348718 C8.80551282,15.0797436 16.0260256,8.20923077 24.8196154,8.20923077 C33.6144872,8.20923077 40.835,15.0797436 41.3952564,23.7348718 L30.0016667,23.7348718 Z M24.8196154,27.9438462 C23.0978205,27.9438462 21.6965385,26.5425641 21.6965385,24.8194872 C21.6965385,23.0976923 23.0978205,21.6964103 24.8196154,21.6964103 C26.5426923,21.6964103 27.9439744,23.0976923 27.9439744,24.8194872 C27.9439744,26.5425641 26.5426923,27.9438462 24.8196154,27.9438462 L24.8196154,27.9438462 Z M24.8196154,6.04 C14.4644872,6.04 6.04012821,14.464359 6.04012821,24.8194872 C6.04012821,25.4194872 6.52602564,25.9053846 7.12474359,25.9053846 L19.6388462,25.9053846 C20.1401282,28.3053846 22.2734615,30.114359 24.8196154,30.114359 C27.3670513,30.114359 29.5003846,28.3053846 30.0016667,25.9053846 L42.5157692,25.9053846 C43.1144872,25.9053846 43.6003846,25.4194872 43.6003846,24.8194872 C43.6003846,14.464359 35.1760256,6.04 24.8196154,6.04 L24.8196154,6.04 Z" id="Fill-4"></path>
                            </g>
                        </g>
                    </g>
                </g>
            </g>
        </g>
    </g>
</svg>