<?xml version="1.0" encoding="UTF-8"?>
<svg width="100px" height="100px" viewBox="0 0 100 100" version="1.1" xmlns="http://www.w3.org/2000/svg" xmlns:xlink="http://www.w3.org/1999/xlink">
    <!-- Generator: Sketch 41 (35326) - http://www.bohemiancoding.com/sketch -->
    <title>ico-develop</title>
    <desc>Created with Sketch.</desc>
    <defs></defs>
    <g id="Page-1" stroke="none" stroke-width="1" fill="none" fill-rule="evenodd">
        <g id="index" transform="translate(-915.000000, -1999.000000)">
            <g id="what-we-do" transform="translate(0.000000, 1900.000000)">
                <g id="Group-11" transform="translate(905.000000, 99.000000)">
                    <g id="Group-10">
                        <g id="ico-develop" transform="translate(10.000000, 0.000000)">
                            <ellipse id="Oval-3" fill="#51DCC3" cx="50" cy="50" rx="50" ry="50"></ellipse>
                            <path d="M74.7343257,46.2276923 L71.3638129,49.5982051 C71.2522745,49.7097436 71.1035565,49.7712821 70.9458642,49.7712821 C70.7881719,49.7712821 70.6394539,49.7097436 70.5266334,49.5982051 L68.3856078,47.4558974 C68.7945821,46.4930769 68.6689411,45.3417949 67.9830437,44.5084615 C67.0125309,43.3302564 65.9215052,43.0661538 65.1766334,43.0533333 L65.1138129,43.0533333 C63.1574027,43.0533333 61.5227873,44.6469231 61.0984283,45.0982051 C61.0727873,45.12 61.0497104,45.1430769 61.0266334,45.1674359 L55.7112488,50.8328205 L50.7574027,46.2046154 L56.590736,40.7315385 C56.5971462,40.7264103 56.6035565,40.72 56.6099668,40.7135897 C57.4804796,39.8571795 57.9240693,38.7571795 57.892018,37.5328205 C57.8509924,35.9238462 57.0112488,34.0841026 55.3971462,32.0635897 C54.3304796,30.7289744 53.2830437,29.7674359 53.1009924,29.6033333 L50.8253514,27.3276923 C55.792018,26.3482051 59.4368898,30.0853846 59.6035565,30.2597436 C59.6099668,30.2674359 59.6176591,30.2751282 59.6253514,30.2815385 L68.0266334,38.6828205 C67.4509924,40.444359 68.0843257,42.0905128 69.8074027,43.1930769 C70.6676591,43.744359 71.7586847,43.7635897 72.6471462,43.3020513 L74.7343257,45.3905128 C74.8458642,45.5020513 74.9074027,45.6507692 74.9074027,45.8097436 C74.9074027,45.9674359 74.8458642,46.1161538 74.7343257,46.2276923 L74.7343257,46.2276923 Z M68.0458642,67.3661538 C68.0458642,68.6225641 67.5561206,69.8033333 66.6676591,70.6917949 C64.8381719,72.5212821 61.8638129,72.5251282 60.0291975,70.7033333 L39.3881719,48.6123077 C37.9189411,47.0405128 35.8279155,46.2494872 33.6548386,46.4430769 C30.8009924,46.6969231 28.0035565,45.6828205 25.9843257,43.6623077 C23.7740693,41.4533333 22.7997104,38.3007692 23.2958642,35.2687179 L26.6586847,38.6315385 C27.1804796,39.1533333 27.8740693,39.4405128 28.6125309,39.4405128 C29.3497104,39.4405128 30.0433001,39.1533333 30.565095,38.6315385 L34.6086847,34.5879487 C35.6856078,33.5110256 35.6856078,31.7597436 34.6086847,30.6815385 L31.2445821,27.3187179 C34.2779155,26.8238462 37.4291975,27.7969231 39.6394539,30.0071795 C41.6599668,32.0276923 42.6727873,34.8225641 42.4202232,37.6776923 C42.2279155,39.8520513 43.0176591,41.9417949 44.5894539,43.4110256 L66.6804796,64.0520513 C67.5612488,64.9392308 68.0458642,66.1148718 68.0458642,67.3661538 L68.0458642,67.3661538 Z M35.5830437,72.2879487 C35.440736,72.4405128 35.2689411,72.4648718 35.1791975,72.4674359 C35.0945821,72.4712821 34.9189411,72.4482051 34.7715052,72.3020513 L29.4574027,66.9866667 C29.3099668,66.8405128 29.290736,66.6674359 29.292018,66.5789744 C29.2933001,66.4892308 29.3176591,66.3187179 29.4702232,66.1751282 L41.916377,54.4982051 L47.0843257,60.0289744 L35.5830437,72.2879487 Z M76.2689411,43.8558974 L73.5086847,41.095641 C73.0856078,40.6725641 72.3984283,40.6725641 71.9753514,41.095641 L71.8215052,41.2482051 C71.5933001,41.4776923 71.2304796,41.5276923 70.9766334,41.3661538 C69.9561206,40.7123077 69.7381719,39.9597436 70.2715052,38.9264103 C70.4868898,38.5071795 70.4074027,37.995641 70.0740693,37.6623077 L61.1676591,28.7558974 C61.0125309,28.595641 59.6676591,27.2353846 57.5202232,26.1994872 C54.5138129,24.7482051 51.3497104,24.6110256 48.3702232,25.8033333 C48.0317616,25.9392308 47.7843257,26.2353846 47.7112488,26.5930769 C47.6368898,26.9494872 47.7484283,27.32 48.0061206,27.5776923 L51.5868898,31.1584615 C51.6022745,31.1738462 51.6176591,31.1892308 51.6343257,31.2033333 C52.7509924,32.1930769 55.6625309,35.2712821 55.7227873,37.5892308 C55.7394539,38.2187179 55.5394539,38.7174359 55.0958642,39.1584615 L49.1689411,44.7187179 L46.0715052,41.8251282 C44.990736,40.8161538 44.4484283,39.3738462 44.5817616,37.8687179 C44.890736,34.3725641 43.6497104,30.9482051 41.1740693,28.4725641 C37.9445821,25.244359 33.0766334,24.1674359 28.7715052,25.7302564 C28.4227873,25.8571795 28.1638129,26.1533333 28.0830437,26.5148718 C28.0022745,26.8764103 28.1125309,27.2546154 28.3753514,27.5174359 L33.0740693,32.2161538 C33.3048386,32.4469231 33.3048386,32.8225641 33.0740693,33.0533333 L29.0304796,37.0969231 C28.9189411,37.2097436 28.7702232,37.2712821 28.6125309,37.2712821 C28.4535565,37.2712821 28.3048386,37.2097436 28.1933001,37.0969231 L23.4945821,32.3982051 C23.2317616,32.1353846 22.8535565,32.0251282 22.492018,32.1058974 C22.1291975,32.1866667 21.8330437,32.4469231 21.7074027,32.795641 C20.1445821,37.1007692 21.2202232,41.9687179 24.4497104,45.1969231 C26.9240693,47.6725641 30.3484283,48.9148718 33.8458642,48.6046154 C35.3509924,48.4712821 36.7933001,49.0148718 37.8022745,50.094359 L40.4356078,52.9123077 L27.9856078,64.5930769 C27.440736,65.1046154 27.1343257,65.7969231 27.1215052,66.544359 C27.1099668,67.2905128 27.3945821,67.9930769 27.9227873,68.5212821 L33.2368898,73.8366667 C33.7548386,74.3533333 34.4394539,74.6366667 35.1689411,74.6366667 L35.2138129,74.6366667 C35.9612488,74.6251282 36.6535565,74.3174359 37.165095,73.7738462 L48.5689411,61.6174359 L58.4561206,72.1994872 C58.465095,72.2084615 58.4740693,72.2174359 58.4817616,72.2264103 C59.7804796,73.5238462 61.5061206,74.2392308 63.342018,74.2392308 C65.1779155,74.2392308 66.9048386,73.5238462 68.2022745,72.2264103 C69.5009924,70.9276923 70.216377,69.2020513 70.216377,67.3661538 C70.216377,65.5302564 69.5009924,63.8033333 68.2022745,62.5046154 C68.1945821,62.4969231 68.1856078,62.4879487 68.1766334,62.4789744 L57.2971462,52.3148718 L62.5356078,46.7315385 C62.5702232,46.7020513 62.6022745,46.67 62.6330437,46.6353846 C62.9638129,46.2661538 64.1215052,45.2225641 65.1138129,45.2225641 C65.1227873,45.2225641 65.1330437,45.2225641 65.1433001,45.2238462 C65.4125309,45.2289744 65.8279155,45.3033333 66.3074027,45.8866667 C66.5291975,46.1558974 66.4984283,46.5712821 66.242018,46.8289744 C66.0343257,47.0315385 65.916377,47.3084615 65.915095,47.5982051 C65.9125309,47.8879487 66.0279155,48.1674359 66.2330437,48.3725641 L68.992018,51.1328205 C70.0702232,52.2097436 71.8215052,52.2084615 72.8984283,51.1328205 L76.2689411,47.7623077 C76.790736,47.2405128 77.0779155,46.5469231 77.0779155,45.8097436 C77.0779155,45.0712821 76.790736,44.3776923 76.2689411,43.8558974 L76.2689411,43.8558974 Z" id="Page-1" fill="#FFFFFF"></path>
                        </g>
                    </g>
                </g>
            </g>
        </g>
    </g>
</svg>