<?xml version="1.0" encoding="UTF-8"?>
<svg width="100px" height="100px" viewBox="0 0 100 100" version="1.1" xmlns="http://www.w3.org/2000/svg" xmlns:xlink="http://www.w3.org/1999/xlink">
    <!-- Generator: Sketch 41 (35326) - http://www.bohemiancoding.com/sketch -->
    <title>ico-hosting</title>
    <desc>Created with Sketch.</desc>
    <defs></defs>
    <g id="Page-1" stroke="none" stroke-width="1" fill="none" fill-rule="evenodd">
        <g id="index" transform="translate(-1169.000000, -1999.000000)">
            <g id="what-we-do" transform="translate(0.000000, 1900.000000)">
                <g id="Group-11" transform="translate(905.000000, 99.000000)">
                    <g id="Group-10-Copy" transform="translate(227.000000, 0.000000)">
                        <g id="ico-hosting" transform="translate(37.000000, 0.000000)">
                            <ellipse id="Oval-3" fill="#51DCC3" cx="50" cy="50" rx="50" ry="50"></ellipse>
                            <g id="Rows" transform="translate(21.000000, 25.000000)" fill="#FFFFFF">
                                <path d="M2.60661765,2.49029412 C2.54191176,2.49029412 2.49044118,2.54176471 2.49044118,2.605 L2.49044118,8.76382353 C2.49044118,8.82852941 2.54191176,8.88 2.60661765,8.88 L54.3345588,8.88 C54.3992647,8.88 54.4507353,8.82852941 54.4507353,8.76382353 L54.4507353,2.605 C54.4507353,2.54176471 54.3992647,2.49029412 54.3345588,2.49029412 L2.60661765,2.49029412 Z M54.3345588,11.3697059 L2.60661765,11.3697059 C1.16838235,11.3697059 0.000735294118,10.2005882 0.000735294118,8.76382353 L0.000735294118,2.605 C0.000735294118,1.16970588 1.16838235,0.000588235294 2.60661765,0.000588235294 L54.3345588,0.000588235294 C55.7713235,0.000588235294 56.9404412,1.16970588 56.9404412,2.605 L56.9404412,8.76382353 C56.9404412,10.2005882 55.7713235,11.3697059 54.3345588,11.3697059 L54.3345588,11.3697059 Z" id="Fill-1"></path>
                                <path d="M2.60661765,21.1411765 C2.54191176,21.1411765 2.49044118,21.1926471 2.49044118,21.2573529 L2.49044118,27.4147059 C2.49044118,27.4808824 2.54044118,27.5308824 2.60661765,27.5308824 L54.3345588,27.5308824 C54.4007353,27.5308824 54.4507353,27.4808824 54.4507353,27.4147059 L54.4507353,21.2573529 C54.4507353,21.1926471 54.3992647,21.1411765 54.3345588,21.1411765 L2.60661765,21.1411765 Z M54.3345588,30.0205882 L2.60661765,30.0205882 C1.16838235,30.0205882 0.000735294118,28.8514706 0.000735294118,27.4147059 L0.000735294118,21.2573529 C0.000735294118,19.8205882 1.16838235,18.6514706 2.60661765,18.6514706 L54.3345588,18.6514706 C55.7713235,18.6514706 56.9404412,19.8205882 56.9404412,21.2573529 L56.9404412,27.4147059 C56.9404412,28.8514706 55.7713235,30.0205882 54.3345588,30.0205882 L54.3345588,30.0205882 Z" id="Fill-3"></path>
                                <path d="M2.60661765,39.7935294 C2.54044118,39.7935294 2.49044118,39.8435294 2.49044118,39.9097059 L2.49044118,46.0670588 C2.49044118,46.1332353 2.54044118,46.1832353 2.60661765,46.1832353 L54.3345588,46.1832353 C54.4007353,46.1832353 54.4507353,46.1332353 54.4507353,46.0670588 L54.4507353,39.9097059 C54.4507353,39.8435294 54.4007353,39.7935294 54.3345588,39.7935294 L2.60661765,39.7935294 Z M54.3345588,48.6729412 L2.60661765,48.6729412 C1.16838235,48.6729412 0.000735294118,47.5038235 0.000735294118,46.0670588 L0.000735294118,39.9097059 C0.000735294118,38.4729412 1.16838235,37.3038235 2.60661765,37.3038235 L54.3345588,37.3038235 C55.7713235,37.3038235 56.9404412,38.4729412 56.9404412,39.9097059 L56.9404412,46.0670588 C56.9404412,47.5038235 55.7713235,48.6729412 54.3345588,48.6729412 L54.3345588,48.6729412 Z" id="Fill-5"></path>
                            </g>
                        </g>
                    </g>
                </g>
            </g>
        </g>
    </g>
</svg>