<?xml version="1.0" encoding="UTF-8"?>
<svg width="102px" height="102px" viewBox="0 0 102 102" version="1.1" xmlns="http://www.w3.org/2000/svg" xmlns:xlink="http://www.w3.org/1999/xlink">
    <!-- Generator: Sketch 41 (35326) - http://www.bohemiancoding.com/sketch -->
    <title>ico-cost</title>
    <desc>Created with Sketch.</desc>
    <defs></defs>
    <g id="Page-1" stroke="none" stroke-width="1" fill="none" fill-rule="evenodd">
        <g id="index" transform="translate(-135.000000, -1613.000000)">
            <g id="features" transform="translate(0.000000, 1107.000000)">
                <g transform="translate(136.000000, 271.000000)" id="Group-3-Copy-5">
                    <g transform="translate(0.000000, 236.000000)">
                        <g id="ico-cost">
                            <path d="M65.9769231,72.4701282 L33.5589744,72.4701282 C32.2410256,72.4701282 31.1705128,71.3983333 31.1705128,70.0816667 L31.1705128,29.5585897 C31.1705128,28.2419231 32.2410256,27.1701282 33.5589744,27.1701282 L53.5871795,27.1701282 L53.5871795,35.5534615 C53.5871795,39.0803846 56.4551282,41.9483333 59.9820513,41.9483333 L68.3653846,41.9483333 L68.3653846,70.0816667 C68.3653846,71.3983333 67.2935897,72.4701282 65.9769231,72.4701282 L65.9769231,72.4701282 Z M66.8307692,39.7791026 L59.9820513,39.7791026 C57.6525641,39.7791026 55.7564103,37.8829487 55.7564103,35.5534615 L55.7564103,28.7047436 L66.8307692,39.7791026 Z M70.5333333,40.8265385 C70.5333333,40.815 70.5320513,40.8021795 70.5320513,40.790641 C70.5282051,40.7444872 70.5230769,40.6983333 70.5153846,40.6534615 C70.5141026,40.6534615 70.5141026,40.6521795 70.5141026,40.6521795 C70.5051282,40.6060256 70.4923077,40.5611538 70.4769231,40.5175641 C70.4730769,40.5060256 70.4692308,40.4944872 70.4653846,40.4829487 C70.45,40.4419231 70.4320513,40.4008974 70.4115385,40.3624359 C70.4102564,40.3598718 70.4089744,40.3560256 70.4076923,40.3534615 C70.3858974,40.3124359 70.3602564,40.2726923 70.3333333,40.2355128 C70.3269231,40.2252564 70.3192308,40.215 70.3115385,40.2047436 C70.2820513,40.1675641 70.2512821,40.1303846 70.2179487,40.0957692 L55.4397436,25.3175641 C55.4051282,25.2829487 55.3679487,25.2534615 55.3294872,25.2239744 C55.3205128,25.2162821 55.3102564,25.2098718 55.3012821,25.2021795 C55.2628205,25.1752564 55.2230769,25.1496154 55.1820513,25.1278205 C55.1794872,25.1265385 55.1769231,25.1252564 55.175641,25.1239744 C55.1358974,25.1034615 55.0935897,25.0855128 55.0525641,25.0701282 C55.0410256,25.0662821 55.0307692,25.0624359 55.0192308,25.0585897 C54.9307692,25.0278205 54.8384615,25.0098718 54.7448718,25.0034615 C54.7320513,25.0034615 54.7205128,25.0021795 54.7089744,25.0021795 C54.6961538,25.0008974 54.6846154,24.9996154 54.6717949,24.9996154 L33.5589744,24.9996154 C31.0448718,24.9996154 29,27.0444872 29,29.5585897 L29,70.0816667 C29,72.5957692 31.0448718,74.640641 33.5589744,74.640641 L65.9769231,74.640641 C68.4910256,74.640641 70.5358974,72.5957692 70.5358974,70.0816667 L70.5358974,40.8637179 C70.5358974,40.8508974 70.5346154,40.839359 70.5333333,40.8265385 L70.5333333,40.8265385 Z" id="Fill-1" fill="#51DCC3"></path>
                            <path d="M58.4651282,45.1589744 L40.2292308,45.1589744 C39.6305128,45.1589744 39.1446154,45.6448718 39.1446154,46.2435897 C39.1446154,46.8435897 39.6305128,47.3294872 40.2292308,47.3294872 L58.4651282,47.3294872 C59.0638462,47.3294872 59.5497436,46.8435897 59.5497436,46.2435897 C59.5497436,45.6448718 59.0638462,45.1589744 58.4651282,45.1589744" id="Fill-4" fill="#51DCC3"></path>
                            <path d="M58.4651282,52.3110256 L40.2292308,52.3110256 C39.6305128,52.3110256 39.1446154,52.7969231 39.1446154,53.395641 C39.1446154,53.995641 39.6305128,54.4815385 40.2292308,54.4815385 L58.4651282,54.4815385 C59.0638462,54.4815385 59.5497436,53.995641 59.5497436,53.395641 C59.5497436,52.7969231 59.0638462,52.3110256 58.4651282,52.3110256" id="Fill-6" fill="#51DCC3"></path>
                            <ellipse id="Oval" stroke-opacity="0.3" stroke="#FFFFFF" fill-opacity="0.2" fill="#FFFFFF" cx="50" cy="50" rx="50" ry="50"></ellipse>
                        </g>
                    </g>
                </g>
            </g>
        </g>
    </g>
</svg>