<?xml version="1.0" encoding="UTF-8"?>
<svg width="102px" height="102px" viewBox="0 0 102 102" version="1.1" xmlns="http://www.w3.org/2000/svg" xmlns:xlink="http://www.w3.org/1999/xlink">
    <!-- Generator: Sketch 41 (35326) - http://www.bohemiancoding.com/sketch -->
    <title>ico-advanced</title>
    <desc>Created with Sketch.</desc>
    <defs></defs>
    <g id="Page-1" stroke="none" stroke-width="1" fill="none" fill-rule="evenodd">
        <g id="index" transform="translate(-534.000000, -1613.000000)">
            <g id="features" transform="translate(0.000000, 1107.000000)">
                <g transform="translate(136.000000, 271.000000)" id="Group-3-Copy-4">
                    <g transform="translate(399.000000, 236.000000)">
                        <g id="ico-advanced">
                            <ellipse id="Oval" stroke-opacity="0.3" stroke="#FFFFFF" fill-opacity="0.2" fill="#FFFFFF" cx="50" cy="50" rx="50" ry="50"></ellipse>
                            <g id="Tablet" transform="translate(30.000000, 25.000000)" fill="#51DCC3">
                                <path d="M34.7615385,47.4705128 L4.88076923,47.4705128 C3.38589744,47.4705128 2.17051282,46.2551282 2.17051282,44.7615385 L2.17051282,37.5833333 L37.4717949,37.5833333 L37.4717949,44.7615385 C37.4717949,46.2551282 36.2551282,47.4705128 34.7615385,47.4705128 L34.7615385,47.4705128 Z M2.17179487,35.4141026 L37.4717949,35.4141026 L37.4717949,9.24230769 L2.17179487,9.24230769 L2.17179487,35.4141026 Z M4.88076923,2.17051282 L34.7615385,2.17051282 C36.2551282,2.17051282 37.4717949,3.38589744 37.4717949,4.87948718 L37.4717949,7.07179487 L2.17051282,7.07179487 L2.17051282,4.87948718 C2.17051282,3.38589744 3.38589744,2.17051282 4.88076923,2.17051282 L4.88076923,2.17051282 Z M34.7615385,0 L4.88076923,0 C2.18974359,0 0,2.18974359 0,4.87948718 L0,8.15769231 L0,36.4987179 L0,44.7615385 C0,47.4512821 2.18974359,49.6410256 4.88076923,49.6410256 L34.7615385,49.6410256 C37.4525641,49.6410256 39.6410256,47.4512821 39.6410256,44.7615385 L39.6410256,36.4987179 L39.6410256,8.15769231 L39.6410256,4.87948718 C39.6410256,2.18974359 37.4525641,0 34.7615385,0 L34.7615385,0 Z" id="Fill-1"></path>
                                <path d="M20.3217949,39.7435897 C19.0128205,39.7435897 17.9487179,40.8076923 17.9487179,42.1166667 C17.9487179,43.425641 19.0128205,44.4910256 20.3217949,44.4910256 C21.6307692,44.4910256 22.6948718,43.425641 22.6948718,42.1166667 C22.6948718,40.8076923 21.6307692,39.7435897 20.3217949,39.7435897" id="Fill-4"></path>
                            </g>
                        </g>
                    </g>
                </g>
            </g>
        </g>
    </g>
</svg>