<?xml version="1.0" encoding="UTF-8"?>
<svg width="38px" height="37px" viewBox="0 0 38 37" version="1.1" xmlns="http://www.w3.org/2000/svg" xmlns:xlink="http://www.w3.org/1999/xlink">
    <!-- Generator: Sketch 42 (36781) - http://www.bohemiancoding.com/sketch -->
    <title>migration-icon-active</title>
    <desc>Created with Sketch.</desc>
    <defs></defs>
    <g id="Page-1" stroke="none" stroke-width="1" fill="none" fill-rule="evenodd">
        <g id="subPanel" transform="translate(-324.000000, -32.000000)" fill="#FFF">
            <g id="migration-icon-active" transform="translate(324.000000, 32.000000)">
                <path d="M11.068,14.7661 L26.568,14.7661 L26.568,2.2661 L11.068,2.2661 L11.068,14.7661 Z M27.318,0.7661 L10.318,0.7661 C9.904,0.7661 9.568,1.1011 9.568,1.5161 L9.568,15.5161 C9.568,15.9301 9.904,16.2661 10.318,16.2661 L27.318,16.2661 C27.733,16.2661 28.068,15.9301 28.068,15.5161 L28.068,1.5161 C28.068,1.1011 27.733,0.7661 27.318,0.7661 L27.318,0.7661 Z" id="Fill-18"></path>
                <path d="M11.068,35.4651 L26.568,35.4651 L26.568,22.9651 L11.068,22.9651 L11.068,35.4651 Z M27.318,21.4651 L10.318,21.4651 C9.904,21.4651 9.568,21.8011 9.568,22.2151 L9.568,36.2151 C9.568,36.6291 9.904,36.9651 10.318,36.9651 L27.318,36.9651 C27.733,36.9651 28.068,36.6291 28.068,36.2151 L28.068,22.2151 C28.068,21.8011 27.733,21.4651 27.318,21.4651 L27.318,21.4651 Z" id="Fill-19"></path>
                <path d="M14.3185,6.5156 C14.8705,6.5156 15.3185,6.0686 15.3185,5.5156 C15.3185,4.9636 14.8705,4.5156 14.3185,4.5156 C13.7655,4.5156 13.3185,4.9636 13.3185,5.5156 C13.3185,6.0686 13.7655,6.5156 14.3185,6.5156" id="Fill-20"></path>
                <path d="M17.3185,6.5156 C17.8705,6.5156 18.3185,6.0686 18.3185,5.5156 C18.3185,4.9636 17.8705,4.5156 17.3185,4.5156 C16.7655,4.5156 16.3185,4.9636 16.3185,5.5156 C16.3185,6.0686 16.7655,6.5156 17.3185,6.5156" id="Fill-21"></path>
                <path d="M14.3185,27.2148 C14.8705,27.2148 15.3185,26.7678 15.3185,26.2148 C15.3185,25.6618 14.8705,25.2148 14.3185,25.2148 C13.7655,25.2148 13.3185,25.6618 13.3185,26.2148 C13.3185,26.7678 13.7655,27.2148 14.3185,27.2148" id="Fill-22"></path>
                <path d="M17.3185,27.2148 C17.8705,27.2148 18.3185,26.7678 18.3185,26.2148 C18.3185,25.6618 17.8705,25.2148 17.3185,25.2148 C16.7655,25.2148 16.3185,25.6618 16.3185,26.2148 C16.3185,26.7678 16.7655,27.2148 17.3185,27.2148" id="Fill-23"></path>
                <path d="M17.3517,31.4648 L14.3517,31.4648 C13.9377,31.4648 13.6017,31.8008 13.6017,32.2148 C13.6017,32.6288 13.9377,32.9648 14.3517,32.9648 L17.3517,32.9648 C17.7657,32.9648 18.1017,32.6288 18.1017,32.2148 C18.1017,31.8008 17.7657,31.4648 17.3517,31.4648" id="Fill-24"></path>
                <path d="M17.4361,10.7656 L14.4361,10.7656 C14.0221,10.7656 13.6861,11.1016 13.6861,11.5156 C13.6861,11.9296 14.0221,12.2656 14.4361,12.2656 L17.4361,12.2656 C17.8501,12.2656 18.1861,11.9296 18.1861,11.5156 C18.1861,11.1016 17.8501,10.7656 17.4361,10.7656" id="Fill-25"></path>
                <path d="M7.0279,28.9648 C7.0259,28.9578 7.0259,28.9508 7.0229,28.9438 C6.9849,28.8198 6.9259,28.7028 6.8239,28.6098 L4.4529,26.4438 C4.1479,26.1628 3.6729,26.1858 3.3939,26.4908 C3.1139,26.7968 3.1359,27.2718 3.4419,27.5508 L4.3419,28.3728 L1.9039,28.3728 L1.9039,9.2658 L6.1119,9.2658 C6.5259,9.2658 6.8619,8.9298 6.8619,8.5158 C6.8619,8.1018 6.5259,7.7658 6.1119,7.7658 L1.1539,7.7658 C0.7399,7.7658 0.4039,8.1018 0.4039,8.5158 L0.4039,29.1228 C0.4039,29.5368 0.7399,29.8728 1.1539,29.8728 L4.4689,29.8728 L3.4419,30.8128 C3.1359,31.0918 3.1139,31.5668 3.3939,31.8718 C3.5419,32.0338 3.7439,32.1158 3.9469,32.1158 C4.1279,32.1158 4.3099,32.0518 4.4529,31.9198 L6.8239,29.7528 C6.9259,29.6588 6.9849,29.5408 7.0229,29.4178 C7.0259,29.4108 7.0259,29.4038 7.0279,29.3978 C7.0479,29.3248 7.0619,29.2548 7.0599,29.1818 C7.0619,29.1078 7.0479,29.0368 7.0279,28.9648" id="Fill-26"></path>
                <path d="M36.483,8.8877 L33.167,8.8877 L34.195,7.9487 C34.501,7.6687 34.522,7.1947 34.243,6.8887 C33.964,6.5827 33.489,6.5617 33.183,6.8407 L30.813,9.0067 C30.71,9.1007 30.651,9.2187 30.613,9.3437 C30.611,9.3497 30.611,9.3557 30.609,9.3617 C30.589,9.4337 30.575,9.5047 30.577,9.5787 C30.575,9.6537 30.589,9.7247 30.609,9.7967 C30.611,9.8027 30.611,9.8087 30.613,9.8147 C30.651,9.9397 30.71,10.0577 30.813,10.1517 L33.183,12.3177 C33.327,12.4497 33.508,12.5137 33.689,12.5137 C33.892,12.5137 34.095,12.4317 34.243,12.2697 C34.522,11.9637 34.501,11.4897 34.195,11.2097 L33.295,10.3877 L35.733,10.3877 L35.733,29.4947 L31.525,29.4947 C31.11,29.4947 30.775,29.8307 30.775,30.2447 C30.775,30.6587 31.11,30.9947 31.525,30.9947 L36.483,30.9947 C36.897,30.9947 37.233,30.6587 37.233,30.2447 L37.233,9.6377 C37.233,9.2237 36.897,8.8877 36.483,8.8877" id="Fill-27"></path>
            </g>
        </g>
    </g>
</svg>