<?xml version="1.0" encoding="UTF-8"?>
<svg width="43px" height="32px" viewBox="0 0 43 32" version="1.1" xmlns="http://www.w3.org/2000/svg" xmlns:xlink="http://www.w3.org/1999/xlink">
    <!-- Generator: Sketch 42 (36781) - http://www.bohemiancoding.com/sketch -->
    <title>network-icon-active</title>
    <desc>Created with Sketch.</desc>
    <defs></defs>
    <g id="Page-1" stroke="none" stroke-width="1" fill="none" fill-rule="evenodd">
        <g id="subPanel" transform="translate(-116.000000, -35.000000)" fill="#51DCC3">
            <path d="M156.12241,56.4856938 C154.75241,57.3396938 152.94741,56.9206938 152.09441,55.5526938 C151.68041,54.8906938 151.55041,54.1076938 151.72641,53.3456938 C151.90241,52.5856938 152.36441,51.9386938 153.02641,51.5256938 C153.50741,51.2256938 154.04141,51.0826938 154.56941,51.0826938 C155.54541,51.0826938 156.50041,51.5706938 157.05541,52.4586938 C157.90841,53.8256938 157.49041,55.6316938 156.12241,56.4856938 M150.26541,53.0076938 C150.15841,53.4666938 150.14641,53.9286938 150.18541,54.3856938 L141.45441,60.2476938 C141.24541,59.8186938 140.98141,59.4106938 140.62641,59.0546938 C140.44541,58.8746938 140.24741,58.7226938 140.04441,58.5806938 L145.37341,43.6796938 C145.76141,43.7876938 146.16241,43.8476938 146.56641,43.8476938 C147.04741,43.8476938 147.52941,43.7586938 147.99741,43.5976938 L151.82641,50.5646938 C151.04941,51.1836938 150.49241,52.0256938 150.26541,53.0076938 M139.56541,64.2506938 C138.42641,65.3906938 136.57041,65.3906938 135.43141,64.2506938 C134.29141,63.1106938 134.29141,61.2556938 135.43141,60.1156938 C136.00041,59.5456938 136.74941,59.2606938 137.49841,59.2606938 C138.24741,59.2606938 138.99641,59.5456938 139.56541,60.1156938 C140.70541,61.2556938 140.70541,63.1106938 139.56541,64.2506938 M133.52041,60.2886938 L124.80941,54.3836938 C124.93041,52.9456938 124.34441,51.5056938 123.16841,50.5656938 L126.99841,43.5986938 C127.46041,43.7586938 127.94141,43.8496938 128.42941,43.8496938 C128.76441,43.8496938 129.10141,43.8116938 129.43541,43.7346938 C129.49941,43.7196938 129.55741,43.6896938 129.62141,43.6726938 L134.96541,58.5686938 C134.75841,58.7146938 134.55541,58.8696938 134.37041,59.0546938 C134.00341,59.4226938 133.73141,59.8436938 133.52041,60.2886938 M122.90241,55.5526938 C122.48941,56.2156938 121.84241,56.6776938 121.08141,56.8536938 C120.32241,57.0326938 119.53741,56.8996938 118.87441,56.4856938 C117.50641,55.6316938 117.08841,53.8256938 117.94141,52.4586938 C118.49541,51.5706938 119.45141,51.0826938 120.42741,51.0826938 C120.95541,51.0826938 121.48941,51.2256938 121.97041,51.5256938 C123.33741,52.3786938 123.75541,54.1856938 122.90241,55.5526938 M125.95641,37.8786938 C126.51041,36.9906938 127.46641,36.5026938 128.44241,36.5026938 C128.97141,36.5026938 129.50541,36.6446938 129.98541,36.9446938 C130.64741,37.3576938 131.10941,38.0046938 131.28541,38.7646938 C131.46141,39.5266938 131.33141,40.3096938 130.91741,40.9716938 L130.91741,40.9726938 C130.50441,41.6346938 129.85741,42.0966938 129.09741,42.2726938 C128.33841,42.4516938 127.55241,42.3186938 126.88941,41.9046938 C126.22641,41.4916938 125.76541,40.8446938 125.58941,40.0846938 C125.41341,39.3236938 125.54341,38.5406938 125.95641,37.8786938 M143.71041,38.7656938 C143.88741,38.0056938 144.34941,37.3586938 145.01141,36.9456938 C145.67441,36.5306938 146.45741,36.3976938 147.21841,36.5776938 C147.97941,36.7536938 148.62541,37.2146938 149.03941,37.8786938 C149.45341,38.5406938 149.58341,39.3236938 149.40741,40.0856938 C149.23141,40.8456938 148.76941,41.4926938 148.10641,41.9056938 C146.73841,42.7586938 144.93241,42.3396938 144.07841,40.9736938 C143.66541,40.3106938 143.53441,39.5266938 143.71041,38.7656938 M158.32741,51.6636938 C157.21541,49.8826938 155.03941,49.1756938 153.13541,49.8316938 L149.30641,42.8666938 C150.08341,42.2476938 150.64141,41.4056938 150.86841,40.4236938 C151.13541,39.2716938 150.93741,38.0866938 150.31141,37.0846938 C149.68641,36.0816938 148.70841,35.3816938 147.55741,35.1156938 C146.40541,34.8486938 145.21941,35.0476938 144.21741,35.6726938 C143.21541,36.2976938 142.51641,37.2756938 142.24941,38.4266938 C141.98241,39.5786938 142.18041,40.7646938 142.80641,41.7666938 L142.80641,41.7676938 C143.12841,42.2836938 143.54141,42.7086938 144.01041,43.0376938 L138.67941,57.9416938 C137.91041,57.7286938 137.10241,57.7266938 136.33241,57.9366938 L130.98741,43.0396938 C131.46341,42.7046938 131.87241,42.2756938 132.19041,41.7666938 C132.81541,40.7636938 133.01341,39.5786938 132.74741,38.4266938 C132.48041,37.2756938 131.78141,36.2976938 130.77941,35.6716938 C128.71041,34.3816938 125.97641,35.0136938 124.68441,37.0836938 C124.05941,38.0866938 123.86141,39.2716938 124.12741,40.4236938 C124.35541,41.4056938 124.91241,42.2476938 125.68941,42.8666938 L121.86041,49.8316938 C119.95641,49.1766938 117.78041,49.8846938 116.66941,51.6636938 C115.37841,53.7326938 116.01141,56.4666938 118.08041,57.7586938 C118.79141,58.2026938 119.59541,58.4306938 120.41441,58.4306938 C120.74841,58.4306938 121.08541,58.3926938 121.41941,58.3156938 C122.57141,58.0486938 123.54941,57.3496938 124.17541,56.3476938 L124.17541,56.3466938 C124.26241,56.2076938 124.31941,56.0576938 124.38941,55.9126938 L133.11141,61.8236938 C133.01041,63.0736938 133.41641,64.3566938 134.37041,65.3106938 C135.23241,66.1736938 136.36541,66.6046938 137.49841,66.6046938 C138.63141,66.6046938 139.76441,66.1736938 140.62641,65.3106938 C141.59441,64.3426938 141.99841,63.0366938 141.88041,61.7686938 L150.60541,55.9116938 C150.67541,56.0576938 150.73441,56.2086938 150.82141,56.3476938 C151.65941,57.6906938 153.10441,58.4276938 154.58141,58.4276938 C155.38141,58.4276938 156.18941,58.2126938 156.91641,57.7586938 C158.98541,56.4666938 159.61841,53.7326938 158.32741,51.6636938" id="network-icon-active"></path>
        </g>
    </g>
</svg>