<?xml version="1.0" encoding="UTF-8"?>
<svg width="36px" height="37px" viewBox="0 0 36 37" version="1.1" xmlns="http://www.w3.org/2000/svg" xmlns:xlink="http://www.w3.org/1999/xlink">
    <!-- Generator: Sketch 42 (36781) - http://www.bohemiancoding.com/sketch -->
    <title>other-icon-active</title>
    <desc>Created with Sketch.</desc>
    <defs></defs>
    <g id="Page-1" stroke="none" stroke-width="1" fill="none" fill-rule="evenodd">
        <g id="subPanel" transform="translate(-394.000000, -35.000000)" fill="#51DCC3">
            <g id="other-icon-active" transform="translate(393.720527, 35.000000)">
                <path d="M31.3194,34.9775 L25.6904,29.3475 C25.0124,28.6695 25.0124,27.5665 25.6904,26.8885 L26.2954,26.2845 C26.6234,25.9555 27.0604,25.7745 27.5244,25.7745 C27.9894,25.7745 28.4254,25.9555 28.7544,26.2845 L34.3834,31.9135 L31.3194,34.9775 Z M5.2804,22.7065 C0.6404,18.0655 0.6404,10.5155 5.2804,5.8745 C7.5284,3.6265 10.5174,2.3885 13.6964,2.3885 C16.8754,2.3885 19.8644,3.6265 22.1124,5.8745 C24.3604,8.1235 25.5984,11.1115 25.5984,14.2905 C25.5984,17.4695 24.3604,20.4575 22.1124,22.7065 C17.4724,27.3455 9.9214,27.3455 5.2804,22.7065 L5.2804,22.7065 Z M35.9744,31.3825 L29.8154,25.2235 C28.6694,24.0765 26.7344,24.0175 25.4864,25.0195 L23.6774,23.2105 C25.8804,20.7505 27.0984,17.6185 27.0984,14.2905 C27.0984,10.7105 25.7044,7.3455 23.1734,4.8145 C20.6414,2.2835 17.2764,0.8885 13.6964,0.8885 C10.1164,0.8885 6.7514,2.2835 4.2204,4.8145 C-1.0046,10.0395 -1.0046,18.5405 4.2204,23.7665 C6.8334,26.3785 10.2644,27.6855 13.6964,27.6855 C16.8934,27.6855 20.0814,26.5375 22.6154,24.2695 L24.4244,26.0795 C23.3864,27.3495 23.4444,29.2235 24.6294,30.4085 L30.7894,36.5685 C30.9294,36.7085 31.1204,36.7885 31.3194,36.7885 C31.5184,36.7885 31.7094,36.7085 31.8494,36.5685 L35.9744,32.4435 C36.1154,32.3025 36.1944,32.1125 36.1944,31.9135 C36.1944,31.7135 36.1154,31.5235 35.9744,31.3825 L35.9744,31.3825 Z" id="Fill-14"></path>
                <path d="M13.6969,13.29 C13.1449,13.29 12.6969,13.738 12.6969,14.29 C12.6969,14.843 13.1449,15.29 13.6969,15.29 C14.2489,15.29 14.6969,14.843 14.6969,14.29 C14.6969,13.738 14.2489,13.29 13.6969,13.29" id="Fill-15"></path>
                <path d="M8.6969,13.29 C8.1449,13.29 7.6969,13.738 7.6969,14.29 C7.6969,14.843 8.1449,15.29 8.6969,15.29 C9.2489,15.29 9.6969,14.843 9.6969,14.29 C9.6969,13.738 9.2489,13.29 8.6969,13.29" id="Fill-16"></path>
                <path d="M18.6969,13.29 C18.1449,13.29 17.6969,13.738 17.6969,14.29 C17.6969,14.843 18.1449,15.29 18.6969,15.29 C19.2489,15.29 19.6969,14.843 19.6969,14.29 C19.6969,13.738 19.2489,13.29 18.6969,13.29" id="Fill-17"></path>
            </g>
        </g>
    </g>
</svg>