<?xml version="1.0" encoding="UTF-8"?>
<svg width="20px" height="21px" viewBox="0 0 20 21" version="1.1" xmlns="http://www.w3.org/2000/svg" xmlns:xlink="http://www.w3.org/1999/xlink">
    <!-- Generator: Sketch 42 (36781) - http://www.bohemiancoding.com/sketch -->
    <title>phone-line</title>
    <desc>Created with Sketch.</desc>
    <defs></defs>
    <g id="Symbols" stroke="none" stroke-width="1" fill="none" fill-rule="evenodd">
        <g id="footer" transform="translate(-817.000000, -525.000000)" fill-rule="nonzero" fill="#51DCC3">
            <g id="Group-4">
                <g transform="translate(0.000000, 504.000000)">
                    <g id="Group-5" transform="translate(136.000000, 21.000000)">
                        <g id="Group-20" transform="translate(681.000000, 0.000000)">
                            <g id="phone-line" transform="translate(10.000000, 10.500000) scale(-1, 1) translate(-10.000000, -10.500000) ">
                                <g id="Layer_1">
                                    <g id="Group">
                                        <path d="M4.04806386,20.4579288 C3.19463315,20.4579288 2.51953125,20.2273801 2.09918478,19.7967327 C1.98454484,19.6792834 1.85716712,19.5574841 1.72554348,19.4269849 C0.965523098,18.6874893 0.0186820652,17.7652947 0.0696331522,16.5690518 C0.103600543,15.7469067 0.591881793,14.9552114 1.56844429,14.1504661 C2.7233356,13.2021718 3.62771739,12.7584744 4.41321332,12.7584744 C5.38977582,12.7584744 6.01392663,13.4066206 6.67629076,14.0939165 C6.74422554,14.1635161 6.81216033,14.2374656 6.88434103,14.3070652 C6.92680027,14.350565 6.99473505,14.3984147 7.13909647,14.3984147 C7.55944293,14.3984147 8.64215353,14.011267 11.1769701,11.4143324 C12.2724185,10.292039 13.0748981,9.33504468 13.5589334,8.56944922 C14.0429687,7.80820373 14.2085598,7.22530718 14.0005095,7.01215845 C13.9283288,6.93820888 13.860394,6.8686093 13.7924592,6.79900971 C13.189538,6.19001332 12.6205842,5.6201667 12.5059443,4.78062167 C12.3828125,3.89322693 12.798913,2.90143281 13.8434103,1.56599072 C14.6543818,0.530696855 15.4568614,0.0260998453 16.2890625,0.0260998453 C17.4142323,0.0260998453 18.2888927,0.970044252 18.9894701,1.72693977 C19.1126019,1.86178897 19.2314878,1.98793822 19.3461277,2.10538752 C19.779212,2.54908489 20,3.25813069 19.9915082,4.15857536 C19.9830163,5.00682033 19.7664742,6.02906427 19.3673573,7.11655783 C18.4629755,9.57864324 16.6754416,12.2538774 14.3359375,14.6507132 C12.5314198,16.4994522 10.5655571,18.0175932 8.64215353,19.0398372 C6.94802989,19.9576817 5.31334918,20.4579288 4.04806386,20.4579288 Z M4.41321332,13.6806689 C3.84850543,13.6806689 3.10122283,14.0678166 2.12890625,14.8682119 C1.37737772,15.4859082 0.982506793,16.0731548 0.961277174,16.6125516 C0.931555707,17.3911969 1.67883832,18.1219926 2.34120245,18.7657888 C2.47707201,18.896288 2.60444973,19.0224373 2.72758152,19.1485865 C2.97384511,19.400885 3.44089674,19.5400842 4.04381793,19.5400842 C5.16898777,19.5400842 6.65930707,19.0789869 8.23454484,18.2350919 C10.0730299,17.2519978 11.966712,15.7947564 13.7075408,14.011267 C15.9578804,11.7057806 17.6732337,9.14364582 18.5351562,6.80335968 C19.3673573,4.53702311 19.1550611,3.21028098 18.717731,2.76658361 C18.5945992,2.64043435 18.4714674,2.50993513 18.3440897,2.37073595 C17.7284307,1.70953987 17.0320992,0.956994329 16.2890625,0.956994329 C15.7498302,0.956994329 15.1638927,1.36154193 14.5397418,2.15323724 C13.6820652,3.24508077 13.3084239,4.0672259 13.3890965,4.66752234 C13.4612772,5.1982192 13.8816236,5.6201667 14.4166101,6.1595635 C14.4887908,6.22916309 14.5567255,6.30311265 14.6289062,6.37706221 C15.1893682,6.95125881 15.0832201,7.86040342 14.306216,9.08274618 C13.7882133,9.90054133 12.9475204,10.9053854 11.8053668,12.0755284 C9.63994565,14.2940153 8.15387228,15.3293092 7.13485054,15.3293092 C6.78243886,15.3293092 6.47673234,15.2031599 6.24320652,14.9682613 C6.17102582,14.8943117 6.09884511,14.8203622 6.03091033,14.7507626 C5.38552989,14.0634667 4.98641304,13.6806689 4.41321332,13.6806689 Z" id="Shape"></path>
                                    </g>
                                </g>
                            </g>
                        </g>
                    </g>
                </g>
            </g>
        </g>
    </g>
</svg>