<?xml version="1.0" encoding="UTF-8"?>
<svg width="38px" height="36px" viewBox="0 0 38 36" version="1.1" xmlns="http://www.w3.org/2000/svg" xmlns:xlink="http://www.w3.org/1999/xlink">
    <!-- Generator: Sketch 42 (36781) - http://www.bohemiancoding.com/sketch -->
    <title>security-icon-passive</title>
    <desc>Created with Sketch.</desc>
    <defs></defs>
    <g id="Page-1" stroke="none" stroke-width="1" fill="none" fill-rule="evenodd">
        <g id="subPanel" transform="translate(-256.000000, -33.000000)" fill="#FFFFFF">
            <path d="M280.872527,55.818 C282.065527,55.818 283.036527,56.789 283.036527,57.982 C283.036527,59.174 282.065527,60.145 280.872527,60.145 C279.679527,60.145 278.708527,59.174 278.708527,57.982 C278.708527,56.789 279.679527,55.818 280.872527,55.818 M261.268527,61.53 C259.312527,61.53 257.720527,59.938 257.720527,57.982 C257.720527,56.025 259.312527,54.433 261.268527,54.433 C263.225527,54.433 264.817527,56.025 264.817527,57.982 C264.817527,59.938 263.225527,61.53 261.268527,61.53 M292.873527,47.269 L274.429527,47.269 L274.429527,40.943 C274.429527,37.39 277.319527,34.5 280.872527,34.5 C284.425527,34.5 287.316527,37.39 287.316527,40.943 L287.316527,44.383 C287.316527,44.797 287.652527,45.133 288.066527,45.133 C288.480527,45.133 288.816527,44.797 288.816527,44.383 L288.816527,40.943 C288.816527,36.563 285.252527,33 280.872527,33 C276.492527,33 272.929527,36.563 272.929527,40.943 L272.929527,47.269 L268.871527,47.269 C268.457527,47.269 268.121527,47.605 268.121527,48.019 L268.121527,57.232 L266.241527,57.232 C265.875527,54.805 263.795527,52.933 261.268527,52.933 C258.485527,52.933 256.220527,55.198 256.220527,57.982 C256.220527,60.765 258.485527,63.03 261.268527,63.03 C263.795527,63.03 265.875527,61.158 266.241527,58.732 L277.287527,58.732 C277.634527,60.393 279.109527,61.645 280.872527,61.645 C282.892527,61.645 284.536527,60.002 284.536527,57.982 C284.536527,55.962 282.892527,54.318 280.872527,54.318 C279.109527,54.318 277.634527,55.57 277.287527,57.232 L269.621527,57.232 L269.621527,48.769 L292.123527,48.769 L292.123527,67.195 L269.621527,67.195 L269.621527,62.038 C269.621527,61.624 269.285527,61.288 268.871527,61.288 C268.457527,61.288 268.121527,61.624 268.121527,62.038 L268.121527,67.945 C268.121527,68.359 268.457527,68.695 268.871527,68.695 L292.873527,68.695 C293.287527,68.695 293.623527,68.359 293.623527,67.945 L293.623527,48.019 C293.623527,47.605 293.287527,47.269 292.873527,47.269" id="security-icon-passive"></path>
        </g>
    </g>
</svg>