<?xml version="1.0" encoding="UTF-8"?>
<svg width="413px" height="39px" viewBox="0 0 413 39" version="1.1" xmlns="http://www.w3.org/2000/svg" xmlns:xlink="http://www.w3.org/1999/xlink">
    <!-- Generator: Sketch 42 (36781) - http://www.bohemiancoding.com/sketch -->
    <title>services-sprite</title>
    <desc>Created with Sketch.</desc>
    <defs>
        <rect id="path-1" x="0" y="0" width="450" height="68"></rect>
        <mask id="mask-2" maskContentUnits="userSpaceOnUse" maskUnits="objectBoundingBox" x="0" y="0" width="450" height="68" fill="white">
            <use xlink:href="#path-1"></use>
        </mask>
    </defs>
    <g id="Page-1" stroke="none" stroke-width="1" fill="none" fill-rule="evenodd">
        <g id="services-sprite" transform="translate(-18.000000, -14.000000)">
            <g id="Group" transform="translate(18.000000, 14.000000)" fill="#51DCC3">
                <path d="M29.5211538,34.0587179 C27.5378205,34.0587179 25.9242308,32.4451282 25.9242308,30.4617949 C25.9242308,28.4775641 27.5378205,26.8639744 29.5211538,26.8639744 C31.5044872,26.8639744 33.1180769,28.4775641 33.1180769,30.4617949 C33.1180769,32.4451282 31.5044872,34.0587179 29.5211538,34.0587179 M5.11628205,23.2508974 C3.13294872,23.2508974 1.51846154,21.6373077 1.51846154,19.6539744 C1.51846154,17.670641 3.13294872,16.0570513 5.11628205,16.0570513 C7.09961538,16.0570513 8.71320513,17.670641 8.71320513,19.6539744 C8.71320513,21.6373077 7.09961538,23.2508974 5.11628205,23.2508974 M29.5211538,5.51846154 C31.5044872,5.51846154 33.1180769,7.13205128 33.1180769,9.11628205 C33.1180769,11.0996154 31.5044872,12.7132051 29.5211538,12.7132051 C27.5378205,12.7132051 25.9242308,11.0996154 25.9242308,9.11628205 C25.9242308,7.13205128 27.5378205,5.51846154 29.5211538,5.51846154 M29.5211538,25.3455128 C27.7002564,25.3455128 26.0992308,26.3021795 25.1919231,27.7389744 L10.0216667,21.1051282 C10.1580769,20.6447436 10.2325641,20.1583333 10.2325641,19.6539744 C10.2325641,19.2366667 10.1814103,18.8319231 10.0862821,18.4442308 L25.1919231,11.8382051 C26.0992308,13.275 27.7002564,14.2325641 29.5211538,14.2325641 C32.3426923,14.2325641 34.6374359,11.9369231 34.6374359,9.11628205 C34.6374359,6.29474359 32.3426923,4 29.5211538,4 C26.6996154,4 24.4048718,6.29474359 24.4048718,9.11628205 C24.4048718,9.57666667 24.4667949,10.0226923 24.5816667,10.4471795 L9.51102564,17.0379487 C8.61717949,15.5419231 6.98205128,14.5376923 5.11628205,14.5376923 C2.29474359,14.5376923 0,16.8324359 0,19.6539744 C0,22.4755128 2.29474359,24.7702564 5.11628205,24.7702564 C6.89230769,24.7702564 8.46012821,23.859359 9.37730769,22.4808974 L24.5816667,29.13 C24.4667949,29.5544872 24.4048718,30.0005128 24.4048718,30.4617949 C24.4048718,33.2824359 26.6996154,35.5780769 29.5211538,35.5780769 C32.3426923,35.5780769 34.6374359,33.2824359 34.6374359,30.4617949 C34.6374359,27.6402564 32.3426923,25.3455128 29.5211538,25.3455128" id="Fill-1"></path>
                <path d="M104.962382,29.501 L104.683382,28.177 C104.449382,27.063 104.032382,26 103.463382,25.027 C103.730382,25.059 104.002382,25.076 104.278382,25.076 C105.717382,25.076 107.054382,24.629 108.158382,23.867 C109.918382,24.926 111.236382,26.683 111.680382,28.791 L111.829382,29.501 L104.962382,29.501 Z M85.4863822,29.501 L85.6913822,28.526 C86.0683822,26.737 86.9983822,25.103 88.3323822,23.863 C88.6383822,23.651 88.9263822,23.415 89.1943822,23.157 C89.2463822,23.12 89.2993822,23.084 89.3513822,23.048 C90.7493822,24.098 92.4843822,24.72 94.3623822,24.72 C96.2393822,24.72 97.9743822,24.098 99.3713822,23.05 C99.4283822,23.088 99.4843822,23.128 99.5403822,23.168 C99.7993822,23.417 100.078382,23.645 100.373382,23.85 C101.714382,25.092 102.649382,26.731 103.027382,28.526 L103.232382,29.501 L85.4863822,29.501 Z M77.0383822,28.791 C77.4823822,26.682 78.8013822,24.924 80.5633822,23.866 C81.6673822,24.628 83.0053822,25.076 84.4453822,25.076 C84.7193822,25.076 84.9893822,25.059 85.2553822,25.027 C84.6863822,26 84.2703822,27.063 84.0353822,28.177 L83.7563822,29.501 L76.8893822,29.501 L77.0383822,28.791 Z M84.4453822,13.059 C85.1793822,13.059 85.8773822,13.213 86.5103822,13.49 C86.1813822,14.385 86.0023822,15.352 86.0023822,16.36 C86.0023822,18.47 86.7893822,20.399 88.0843822,21.872 C87.9583822,21.964 87.8333822,22.059 87.7123822,22.158 C87.5633822,22.278 87.4193822,22.404 87.2773822,22.533 C86.4643822,23.069 85.4913822,23.383 84.4453822,23.383 C81.5993822,23.383 79.2833822,21.067 79.2833822,18.221 C79.2833822,15.374 81.5993822,13.059 84.4453822,13.059 L84.4453822,13.059 Z M94.3623822,9.693 C98.0383822,9.693 101.030382,12.684 101.030382,16.36 C101.030382,20.037 98.0383822,23.028 94.3623822,23.028 C90.6863822,23.028 87.6943822,20.037 87.6943822,16.36 C87.6943822,12.684 90.6863822,9.693 94.3623822,9.693 L94.3623822,9.693 Z M104.278382,13.059 C107.124382,13.059 109.440382,15.374 109.440382,18.221 C109.440382,21.067 107.124382,23.383 104.278382,23.383 C103.224382,23.383 102.244382,23.064 101.426382,22.519 C101.289382,22.396 101.150382,22.274 101.007382,22.158 C100.886382,22.06 100.763382,21.966 100.638382,21.874 C101.934382,20.401 102.722382,18.472 102.722382,16.36 C102.722382,15.353 102.543382,14.386 102.215382,13.491 C102.847382,13.214 103.544382,13.059 104.278382,13.059 L104.278382,13.059 Z M113.701382,30.173 L113.336382,28.442 C112.900382,26.37 111.754382,24.494 110.110382,23.159 C109.903382,22.992 109.691382,22.835 109.472382,22.687 C110.506382,21.486 111.133382,19.926 111.133382,18.221 C111.133382,14.441 108.058382,11.366 104.278382,11.366 C103.278382,11.366 102.329382,11.582 101.472382,11.969 C99.9973822,9.589 97.3623822,8 94.3623822,8 C91.3623822,8 88.7273822,9.589 87.2523822,11.969 C86.3953822,11.582 85.4453822,11.366 84.4453822,11.366 C80.6663822,11.366 77.5913822,14.441 77.5913822,18.221 C77.5913822,19.925 78.2173822,21.485 79.2513822,22.686 C79.0313822,22.834 78.8163822,22.991 78.6093822,23.159 C76.9643822,24.494 75.8183822,26.37 75.3823822,28.442 L75.0183822,30.173 C74.9653822,30.423 75.0283822,30.682 75.1893822,30.881 C75.3493822,31.079 75.5913822,31.194 75.8463822,31.194 L84.4433822,31.194 L85.5683822,31.194 L104.078382,31.194 L104.275382,31.194 L112.872382,31.194 C113.128382,31.194 113.369382,31.079 113.530382,30.881 C113.690382,30.682 113.753382,30.423 113.701382,30.173 L113.701382,30.173 Z" id="Fill-1"></path>
                <path d="M173.441795,10.154 C168.365795,10.154 164.236795,14.284 164.236795,19.359 C164.236795,24.435 168.365795,28.565 173.441795,28.565 C178.517795,28.565 182.646795,24.435 182.646795,19.359 C182.646795,14.284 178.517795,10.154 173.441795,10.154 M173.441795,30.258 C167.432795,30.258 162.543795,25.369 162.543795,19.359 C162.543795,13.35 167.432795,8.461 173.441795,8.461 C179.450795,8.461 184.339795,13.35 184.339795,19.359 C184.339795,25.369 179.450795,30.258 173.441795,30.258 M165.351795,31.306 C165.506795,31.306 165.663795,31.349 165.803795,31.438 C167.196795,32.32 168.709795,32.949 170.301795,33.306 C170.722795,33.4 171.005795,33.797 170.957795,34.226 C170.952795,34.269 170.946795,34.312 170.940795,34.355 C170.932795,34.417 170.924795,34.475 170.924795,34.509 C170.924795,35.897 172.053795,37.027 173.441795,37.027 C174.829795,37.027 175.958795,35.897 175.958795,34.509 C175.958795,34.475 175.950795,34.416 175.942795,34.354 C175.936795,34.312 175.930795,34.269 175.925795,34.227 C175.877795,33.798 176.159795,33.4 176.581795,33.306 C178.173795,32.949 179.687795,32.32 181.079795,31.438 C181.445795,31.206 181.926795,31.287 182.195795,31.627 C182.221795,31.659 182.246795,31.692 182.271795,31.725 C182.310795,31.777 182.348795,31.826 182.374795,31.852 C183.355795,32.833 184.952795,32.833 185.934795,31.852 C186.915795,30.871 186.915795,29.274 185.933795,28.292 C185.908795,28.266 185.859795,28.229 185.806795,28.189 C185.773795,28.164 185.740795,28.139 185.708795,28.113 C185.369795,27.844 185.288795,27.363 185.519795,26.997 C186.402795,25.605 187.030795,24.091 187.387795,22.5 C187.482795,22.078 187.881795,21.795 188.309795,21.844 C188.351795,21.849 188.393795,21.854 188.434795,21.86 C188.497795,21.868 188.556795,21.876 188.591795,21.876 C189.979795,21.876 191.108795,20.747 191.108795,19.359 C191.108795,17.972 189.979795,16.842 188.591795,16.842 C188.557795,16.842 188.498795,16.85 188.437795,16.859 C188.394795,16.865 188.351795,16.87 188.308795,16.875 C187.879795,16.922 187.482795,16.641 187.387795,16.219 C187.030795,14.627 186.402795,13.114 185.519795,11.721 C185.287795,11.356 185.369795,10.874 185.709795,10.605 C185.741795,10.579 185.773795,10.555 185.806795,10.53 C185.858795,10.49 185.908795,10.453 185.934795,10.426 C186.915795,9.445 186.915795,7.849 185.933795,6.867 C185.458795,6.392 184.826795,6.13 184.154795,6.13 C183.481795,6.13 182.849795,6.392 182.374795,6.867 C182.348795,6.893 182.310795,6.942 182.271795,6.994 C182.246795,7.027 182.221795,7.06 182.195795,7.093 C181.926795,7.432 181.444795,7.513 181.079795,7.281 C179.686795,6.399 178.173795,5.77 176.581795,5.413 C176.159795,5.319 175.877795,4.921 175.925795,4.492 C175.930795,4.45 175.936795,4.407 175.942795,4.365 C175.950795,4.303 175.958795,4.244 175.958795,4.21 C175.958795,2.822 174.829795,1.693 173.441795,1.693 C172.053795,1.693 170.924795,2.822 170.924795,4.21 C170.924795,4.244 170.932795,4.302 170.940795,4.364 C170.946795,4.407 170.952795,4.45 170.957795,4.493 C171.005795,4.922 170.722795,5.319 170.301795,5.413 C168.709795,5.77 167.196795,6.399 165.803795,7.281 C165.438795,7.513 164.956795,7.432 164.687795,7.093 C164.661795,7.06 164.636795,7.027 164.611795,6.994 C164.572795,6.942 164.534795,6.893 164.508795,6.867 C164.033795,6.392 163.401795,6.13 162.728795,6.13 C162.056795,6.13 161.424795,6.392 160.949795,6.867 C160.473795,7.343 160.211795,7.975 160.211795,8.647 C160.211795,9.319 160.473795,9.951 160.949795,10.427 C160.974795,10.453 161.024795,10.49 161.076795,10.53 C161.109795,10.555 161.141795,10.579 161.173795,10.605 C161.513795,10.874 161.595795,11.356 161.363795,11.721 C160.480795,13.114 159.852795,14.627 159.495795,16.219 C159.400795,16.641 159.003795,16.922 158.574795,16.875 C158.531795,16.87 158.488795,16.865 158.445795,16.859 C158.384795,16.85 158.325795,16.842 158.291795,16.842 C156.903795,16.842 155.774795,17.972 155.774795,19.359 C155.774795,20.747 156.903795,21.876 158.291795,21.876 C158.326795,21.876 158.385795,21.868 158.448795,21.86 C158.489795,21.854 158.531795,21.849 158.573795,21.844 C159.001795,21.794 159.400795,22.078 159.495795,22.5 C159.852795,24.091 160.480795,25.605 161.363795,26.997 C161.594795,27.363 161.513795,27.844 161.174795,28.113 C161.142795,28.139 161.109795,28.164 161.076795,28.189 C161.023795,28.229 160.974795,28.266 160.948795,28.293 C160.473795,28.768 160.211795,29.4 160.211795,30.072 C160.211795,30.744 160.473795,31.377 160.948795,31.852 C161.930795,32.833 163.527795,32.833 164.508795,31.852 C164.534795,31.826 164.572795,31.777 164.611795,31.725 C164.636795,31.692 164.661795,31.659 164.687795,31.627 C164.853795,31.417 165.100795,31.306 165.351795,31.306 M173.441795,38.719 C171.213795,38.719 169.383795,36.979 169.240795,34.786 C167.937795,34.432 166.686795,33.912 165.506795,33.235 C163.855795,34.687 161.328795,34.625 159.752795,33.049 C158.956795,32.254 158.519795,31.197 158.519795,30.072 C158.519795,29.039 158.888795,28.062 159.565795,27.294 C158.888795,26.114 158.369795,24.863 158.014795,23.56 C155.822795,23.417 154.081795,21.588 154.081795,19.359 C154.081795,17.131 155.821795,15.302 158.014795,15.159 C158.369795,13.855 158.888795,12.604 159.565795,11.425 C158.888795,10.656 158.519795,9.68 158.519795,8.647 C158.519795,7.522 158.956795,6.465 159.752795,5.67 C160.547795,4.875 161.604795,4.437 162.728795,4.437 C163.762795,4.437 164.738795,4.807 165.507795,5.484 C166.686795,4.807 167.937795,4.287 169.240795,3.933 C169.383795,1.74 171.213795,0 173.441795,0 C175.669795,0 177.499795,1.74 177.642795,3.933 C178.945795,4.287 180.196795,4.807 181.375795,5.484 C182.144795,4.807 183.120795,4.437 184.154795,4.437 C185.278795,4.437 186.335795,4.875 187.130795,5.67 C188.707795,7.247 188.769795,9.773 187.317795,11.425 C187.994795,12.604 188.513795,13.855 188.868795,15.159 C191.061795,15.302 192.801795,17.131 192.801795,19.359 C192.801795,21.588 191.060795,23.417 188.868795,23.56 C188.513795,24.863 187.994795,26.114 187.317795,27.294 C188.769795,28.947 188.707795,31.473 187.130795,33.049 C185.554795,34.625 183.027795,34.687 181.376795,33.235 C180.196795,33.912 178.945795,34.432 177.642795,34.786 C177.499795,36.979 175.669795,38.719 173.441795,38.719" id="Settings"></path>
                <path d="M257.437366,31.8566829 L257.07561,30.1392195 C256.799903,28.8300488 256.302927,27.6139512 255.641756,26.5102439 C256.321366,26.6867317 257.024683,26.7859512 257.744683,26.7859512 L257.760488,26.7859512 C259.611415,26.782439 261.363122,26.1748293 262.807512,25.0684878 C264.724293,26.3539512 266.152,28.3453659 266.655122,30.7152195 L266.893951,31.84 L257.437366,31.8566829 Z M235.12,30.4447805 C235.702147,27.682439 237.373951,25.3652683 239.617366,23.8813659 C241.211903,25.1167805 243.205951,25.8596098 245.373854,25.8596098 C247.540878,25.8596098 249.534049,25.1167805 251.127708,23.884 C253.369366,25.3679024 255.040293,27.6833171 255.620683,30.4447805 L255.918342,31.8558049 L234.82322,31.8558049 L235.12,30.4447805 Z M245.373854,8.48741463 C249.754439,8.48741463 253.316683,12.0496585 253.316683,16.4302439 C253.316683,20.8099512 249.754439,24.3721951 245.373854,24.3721951 C240.994147,24.3721951 237.431025,20.8099512 237.431025,16.4302439 C237.431025,12.0496585 240.994147,8.48741463 245.373854,8.48741463 L245.373854,8.48741463 Z M257.735025,11.5658537 L257.747317,11.5658537 C259.576293,11.5658537 261.297269,12.2770732 262.594147,13.5686829 C263.892781,14.8629268 264.611025,16.5865366 264.613659,18.4216585 C264.617171,20.2550244 263.905951,21.9812683 262.610829,23.2799024 C261.316586,24.5794146 259.592976,25.2967805 257.757854,25.2994146 L257.744683,25.2994146 C255.915708,25.2994146 254.194732,24.5890732 252.898732,23.2974634 C252.713464,23.1130732 252.542244,22.9190244 252.382439,22.7170732 C253.882147,21.0461463 254.804098,18.8466341 254.804098,16.4302439 C254.804098,15.0938537 254.520488,13.8241951 254.017366,12.6713171 C255.115805,11.9574634 256.394244,11.5684878 257.735025,11.5658537 L257.735025,11.5658537 Z M268.109171,30.4070244 C267.549854,27.771122 266.002732,25.5435122 263.92,24.045561 C265.326634,22.5001951 266.103708,20.5210732 266.100195,18.4190244 C266.095805,16.1870244 265.223903,14.0902439 263.642537,12.5159024 C262.065561,10.9441951 259.972293,10.0793171 257.747317,10.0793171 L257.73239,10.0793171 C256.142244,10.0828293 254.625854,10.5341463 253.313171,11.3621463 C251.636098,8.74380488 248.707805,7 245.373854,7 C240.174927,7 235.94361,11.230439 235.94361,16.4302439 C235.94361,18.916878 236.918244,21.1752195 238.496976,22.8610732 C236.092,24.5609756 234.303415,27.1125854 233.665951,30.1392195 L233.18039,32.4467317 C233.133854,32.6653659 233.190049,32.8936585 233.330537,33.0675122 C233.471903,33.2413659 233.683512,33.3423415 233.907415,33.3423415 L267.813269,33.3256585 C268.037171,33.3247805 268.248781,33.2238049 268.389269,33.0490732 C268.530634,32.8752195 268.585073,32.6460488 268.538537,32.4274146 L268.109171,30.4070244 Z" id="Fill-3"></path>
                <g id="Award" transform="translate(308.917363, 3.000000)">
                    <path d="M16.9711902,31.5157171 L16.9711902,24.6934537 C16.9711902,24.2825268 17.3039707,23.9497463 17.7148976,23.9497463 C18.1258244,23.9497463 18.4586049,24.2825268 18.4586049,24.6934537 L18.4586049,31.5157171 L24.3568098,31.5157171 C24.7677366,31.5157171 25.1005171,31.8484976 25.1005171,32.2585463 C25.1005171,32.6694732 24.7677366,33.0022537 24.3568098,33.0022537 L11.0728098,33.0022537 C10.6618829,33.0022537 10.3291024,32.6694732 10.3291024,32.2585463 C10.3291024,31.8484976 10.6618829,31.5157171 11.0728098,31.5157171 L16.9711902,31.5157171 Z" id="Combined-Shape"></path>
                    <path d="M7.9397561,1.4867122 C8.10395122,8.27139512 10.5098049,14.8892488 14.7551707,20.1979317 L17.7150732,23.8971512 L20.6740976,20.1979317 C24.9194634,14.8892488 27.324439,8.27139512 27.4895122,1.4867122 L7.9397561,1.4867122 Z M12.5767611,19.7838128 C1.61287725,19.4761334 0.0184596086,4.66269619 0.00368780488,4.51150244 C-0.0173853659,4.30252683 0.051102439,4.09530732 0.192468293,3.93901463 C0.332956098,3.7836 0.53315122,3.69491707 0.743004878,3.69491707 L6.57968865,3.69491707 C6.48989464,2.71560844 6.44443902,1.73057237 6.44443902,0.743004878 C6.44443902,0.332956098 6.77721951,0.000175609757 7.18726829,0.000175609757 L28.241122,0.000175609757 C28.6520488,0.000175609757 28.9848293,0.332956098 28.9848293,0.743004878 C28.9848293,8.12300488 26.4455122,15.361639 21.834878,21.1251512 L18.2954634,25.549639 C18.1540976,25.7270049 17.9407317,25.8297366 17.7150732,25.8297366 C17.4894146,25.8297366 17.2760488,25.7270049 17.1346829,25.549639 L13.5935122,21.1251512 C13.2425175,20.6863911 12.9035319,20.2390822 12.5767611,19.7838128 Z M11.5140069,18.2075017 C9.01762039,14.2601377 7.38983886,9.80378811 6.75056575,5.18145366 L1.59822439,5.18145366 C1.8036878,6.43969756 2.32876098,8.9676 3.4974439,11.4603805 C5.37651639,15.4689134 8.06864333,17.7322537 11.5140069,18.2075017 Z" id="Combined-Shape"></path>
                    <path d="M22.4652293,19.7886732 C22.0543024,19.7886732 21.721522,19.4558927 21.721522,19.0449659 C21.721522,18.6349171 22.0543024,18.3021366 22.4652293,18.3021366 C26.5929366,18.3021366 29.7644488,16.0007707 31.892839,11.4603805 C33.061522,8.9676 33.5865951,6.43969756 33.7920585,5.18145366 L28.0259122,5.18145366 C27.6149854,5.18145366 27.2822049,4.84867317 27.2822049,4.43862439 C27.2822049,4.02769756 27.6149854,3.69491707 28.0259122,3.69491707 L34.647278,3.69491707 C34.8571317,3.69491707 35.0573268,3.7836 35.1978146,3.93901463 C35.3391805,4.09530732 35.4076683,4.30252683 35.3865951,4.51150244 C35.3716683,4.66428293 33.7437659,19.7886732 22.4652293,19.7886732" id="Fill-7"></path>
                </g>
                <g id="Lock-Rounded" transform="translate(385.279927, 2.000000)">
                    <path d="M13.8569538,34.1881846 C7.07972308,34.1881846 1.57264615,28.6801846 1.57264615,21.9038769 C1.57264615,15.1266462 7.07972308,9.60941538 13.8569538,9.60941538 C20.6341846,9.60941538 26.1412615,15.1164923 26.1412615,21.8937231 C26.1412615,28.6709538 20.6341846,34.1881846 13.8569538,34.1881846 L13.8569538,34.1881846 Z M6.0348,9.39433846 C6.0348,5.08726154 9.54064615,1.57218462 13.8569538,1.57218462 C18.1732615,1.57218462 21.6791077,5.07803077 21.6791077,9.39433846 L21.6791077,10.4780308 C19.4526462,8.9448 16.7572615,8.05587692 13.8569538,8.05587692 C10.9566462,8.05587692 8.26126154,8.95495385 6.0348,10.4780308 L6.0348,9.39433846 L6.0348,9.39433846 Z M23.2409538,11.7186462 L23.2409538,9.38418462 C23.2409538,4.20849231 19.0326462,0.000184615385 13.8569538,0.000184615385 C8.68126154,0.000184615385 4.47295385,4.20849231 4.47295385,9.38418462 L4.47295385,11.7186462 C1.72864615,14.2478769 -0.000276923077,17.8801846 -0.000276923077,21.8937231 C-0.000276923077,29.5303385 6.21110769,35.7408 13.8468,35.7408 C21.4834154,35.7408 27.6938769,29.5303385 27.6938769,21.8937231 C27.7040308,17.8801846 25.9852615,14.2571077 23.2409538,11.7186462 L23.2409538,11.7186462 Z" id="Fill-1"></path>
                    <path d="M14.8676308,21.3306462 C15.6513231,20.9401846 16.1820923,20.1158769 16.1414769,19.1715692 C16.0916308,18.0094154 15.1547077,17.0531077 13.9944,16.9811077 C12.6596308,16.8971077 11.5510154,17.9558769 11.5510154,19.2731077 C11.5510154,20.1749538 12.0707077,20.9549538 12.8267077,21.3306462 L10.6491692,26.5635692 C10.5624,26.7712615 10.7156308,27.0001846 10.9399385,27.0001846 L16.7544,27.0001846 C16.9787077,27.0001846 17.1319385,26.7712615 17.0451692,26.5635692 L14.8676308,21.3306462 Z" id="Fill-4"></path>
                </g>
            </g>
            <use id="Rectangle" stroke-opacity="0" stroke="#979797" mask="url(#mask-2)" stroke-width="2" fill-opacity="0" fill="#D8D8D8" xlink:href="#path-1"></use>
        </g>
    </g>
</svg>