<svg>
    <symbol id='migration'>
      <g fill="#FFF" fill-rule="evenodd">
        <path d="M11 14.8h15.6V2.3H11v12.5zM27.4.8h-17c-.4 0-.7.3-.7.7v14c0 .4.3.8.7.8h17c.4 0 .8-.4.8-.8v-14c0-.4-.3-.7-.7-.7zM11 35.5h15.6V23H11v12.5zm16.3-14h-17c-.4 0-.7.3-.7.7v14c0 .4.3.8.7.8h17c.4 0 .8-.4.8-.8v-14c0-.4 0-.7-.4-.7z"/>
        <path d="M14.3 6.5c.6 0 1-.4 1-1 0-.5-.4-1-1-1-.5 0-1 .5-1 1 0 .6.5 1 1 1m3 0c.6 0 1-.4 1-1 0-.5-.4-1-1-1-.5 0-1 .5-1 1 0 .6.5 1 1 1m-3 20.7c.6 0 1-.4 1-1 0-.5-.4-1-1-1-.5 0-1 .5-1 1 0 .6.5 1 1 1m3 0c.6 0 1-.4 1-1 0-.5-.4-1-1-1-.5 0-1 .5-1 1 0 .6.5 1 1 1m0 4.3h-3c-.4 0-.7.3-.7.7 0 .4.3.8.8.8h3c.4 0 .7-.4.7-.8s0-.7-.3-.7m0-20.7h-3c-.5 0-.8.3-.8.7 0 .4.2.8.6.8h3c.5 0 .8-.4.8-.8s-.3-.7-.8-.7M7 29c0-.2 0-.3-.2-.4l-2.3-2.2c-.4-.2-.8-.2-1 0-.4.4-.4 1 0 1.2l.8.8H2v-19h4c.5 0 1-.5 1-1 0-.3-.5-.6-1-.6H1.3c-.5 0-.8.3-.8.7V29c0 .5.3 1 .8 1h3.3l-1 .8c-.4.3-.4.8 0 1 0 .2.2.3.4.3h.5l2.3-2 .2-.3V29M36.5 9h-3.3l1-1c.3-.3.3-.8 0-1-.2-.4-.7-.4-1-.2L30.8 9s0 .2-.2.3v.5s0 .3.2.4l2.4 2c0 .2.3.3.5.3s.4 0 .5-.2c.3-.3.3-.8 0-1l-1-1h2.5v19.2h-4.2c-.4 0-.7.3-.7.7 0 .5.3.8.7.8h5c.4 0 .7-.3.7-.8V9.6c0-.4-.3-.7-.7-.7"/>
      </g>
    </symbol>
    <symbol id='cloud'>
    	<path fill="#FFF" fill-rule="evenodd" d="M40.17 16.6c.06-.55.1-1.07.1-1.56 0-2.5-.64-5-1.83-7.18-.04-.08-.1-.15-.18-.2 0-.1-.03-.16-.07-.23C36.1 3.96 32.8 1.5 28.9.5 25.02-.52 21 .05 17.52 2.1c-.3.18-.62.4-.92.6-.9-.66-1.93-1.15-3.03-1.4-.66-.16-1.32-.24-1.98-.24-4.7 0-8.5 3.8-8.5 8.47 0 .96.12 1.9.5 2.8C1.1 14.4-.2 17.5 0 20.73.38 26 4.9 30.1 10.38 30.1H22.3c4.1 0 7.73-2.68 8.83-6.5.95-3.35.73-6.8-.58-9.94l4.3 1.84c.4.16.83-.02 1-.4.16-.38-.02-.82-.4-.98L29.3 11.5h-.04c-.2-.1-.45-.1-.67.03-.2.12-.3.32-.4.54l-2.58 5.97c-.17.38 0 .82.4.98.1.04.2.06.3.06.3 0 .55-.17.67-.45L29.1 14c1.27 2.88 1.5 6.08.62 9.17-.92 3.2-3.96 5.43-7.4 5.43H10.4c-4.67 0-8.57-3.5-8.88-7.96-.2-2.93 1.1-5.73 3.45-7.5.28-.2.36-.57.23-.88-.36-.86-.55-1.78-.55-2.73 0-3.84 3.12-6.97 6.97-6.97.54 0 1.1.06 1.62.2.77.17 1.48.48 2.14.9-2.3 2-3.97 4.62-4.75 7.63-.83 3.2-.57 6.5.7 9.5L7 19c-.38-.16-.82 0-.98.4-.16.38.02.82.4.98l6.14 2.6c.04.03.08.03.13.04l.1.05.2-.05c.05-.02.12-.02.2-.06.2-.12.3-.32.33-.54l2.54-5.96c.16-.4 0-.83-.4-1-.38-.15-.8.03-.98.4l-1.9 4.64c-1.23-2.78-1.5-5.86-.7-8.84.9-3.5 3.1-6.44 6.22-8.28 3.12-1.84 6.77-2.35 10.28-1.44 3.5.9 6.5 3.13 8.3 6.25l.2.1c0 .05.07.13.1.2 1.07 2 1.64 4.2 1.64 6.45 0 .66-.06 1.37-.2 2.17-.03.22.04.44.2.6.13.18.33.27.55.27h.2c2.9 0 5.26 2.34 5.26 5.25 0 2.9-2.35 5.26-5.26 5.26h-7c-.4 0-.74.33-.74.75 0 .4.34.77.75.77h6.96c3.74 0 6.78-3.05 6.78-6.78 0-3.5-2.7-6.4-6.1-6.76"/>
    </symbol>
    <symbol id='network'>
    	<path fill="#FFF" fill-rule="evenodd" d="M40.12 21.5c-1.37.84-3.17.42-4.03-.95-.5-.66-.6-1.44-.4-2.2.1-.76.6-1.4 1.3-1.82.5-.3 1-.45 1.5-.45 1 0 1.9.5 2.5 1.38.8 1.37.4 3.17-1 4.03M34.2 18c-.1.4-.12.9-.1 1.4l-8.73 5.8c-.2-.46-.47-.87-.8-1.2-.2-.2-.4-.36-.6-.5L29.3 8.6c.4.1.8.18 1.2.18.5 0 .97-.1 1.44-.26l3.8 6.95c-.78.6-1.34 1.46-1.56 2.44m-10.6 11.4c-1.15 1.2-3 1.2-4.15 0-1.12-1.1-1.12-3 0-4.1.6-.5 1.34-.8 2.1-.8.73 0 1.5.3 2.05.9 1.14 1.2 1.14 3 0 4.2m-6.04-4l-8.7-5.9c.1-1.4-.46-2.9-1.63-3.8l3.9-7c.5.2 1 .3 1.5.3.4 0 .7 0 1-.1.1 0 .2 0 .2-.02l5.4 14.9c-.2.16-.4.3-.6.5-.3.37-.6.8-.8 1.24M7 20.58c-.4.68-1.05 1.14-1.8 1.3-.77.2-1.55.06-2.2-.35-1.38-.87-1.8-2.67-.95-4.04.56-.9 1.5-1.4 2.5-1.4.5 0 1.05.15 1.53.45 1.38.86 1.8 2.67.94 4.03m3-17.76c.55-.9 1.5-1.35 2.5-1.35.5 0 1.05.13 1.53.43.6.4 1.1 1.06 1.3 1.8.1.78 0 1.56-.4 2.2-.4.68-1.1 1.15-1.8 1.3-.8.2-1.6.07-2.2-.35-.7-.4-1.2-1.06-1.3-1.82-.2-.73-.1-1.5.3-2.2m17.7.9c.2-.74.6-1.4 1.3-1.8.6-.4 1.4-.53 2.2-.35.7.18 1.4.64 1.8 1.3.4.67.5 1.45.3 2.2-.2.78-.6 1.4-1.3 1.84-1.37.9-3.2.5-4-.9-.4-.64-.6-1.4-.4-2.2M42.3 16.7c-1.1-1.8-3.3-2.5-5.2-1.83L33.3 7.9c.78-.6 1.34-1.44 1.57-2.43.26-1.15.06-2.33-.57-3.34-.6-1-1.6-1.7-2.74-1.96C30.43-.1 29.24.1 28.24.7c-1 .63-1.7 1.6-1.97 2.76-.3 1.15-.1 2.33.52 3.34.3.5.7.93 1.2 1.26l-5.4 14.9c-.8-.2-1.6-.2-2.4 0L15 8.06c.46-.36.87-.78 1.2-1.3.62-1 .8-2.2.55-3.33-.27-1.15-.97-2.13-1.97-2.76-2.07-1.3-4.8-.66-6.1 1.4-.62 1.02-.82 2.2-.55 3.35.23 1 .78 1.83 1.56 2.45l-3.9 6.96c-1.9-.65-4.1.05-5.2 1.83-1.3 2.07-.7 4.8 1.4 6.1.7.44 1.5.67 2.3.67.3 0 .7-.04 1-.1 1.1-.28 2.1-.98 2.7-1.98.1-.14.1-.3.2-.44l8.7 6c-.1 1.3.3 2.6 1.3 3.5.8.9 2 1.3 3.1 1.3s2.2-.4 3.1-1.3c.9-.9 1.3-2.2 1.2-3.5l8.7-5.9.2.5c.82 1.4 2.3 2.1 3.74 2.1.8 0 1.6-.2 2.33-.6 2.1-1.3 2.7-4 1.4-6.1"/>
    </symbol>
    <symbol id='other'>
    	<g fill="#FFF" fill-rule="evenodd">
		    <path d="M31.04 34.98l-5.63-5.63c-.6-.68-.6-1.78 0-2.46l.7-.7c.3-.3.8-.5 1.2-.5.5 0 .9.2 1.3.5l5.63 5.6-3.06 3.1zM5 22.7C.36 18.08.36 10.53 5 5.88c2.25-2.24 5.24-3.48 8.42-3.48 3.18 0 6.16 1.23 8.4 3.47 2.26 2.25 3.5 5.24 3.5 8.42 0 3.1-1.24 6.1-3.5 8.4-4.62 4.6-12.18 4.6-16.82 0zm30.7 8.68l-6.16-6.16c-1.15-1.14-3.1-1.2-4.33-.2l-1.8-1.8c2.2-2.47 3.5-5.6 3.5-8.93 0-3.6-1.4-7-3.9-9.5-2.6-2.5-6-3.9-9.6-3.9S6.5 2.23 3.98 4.8c-5.22 5.24-5.22 13.74 0 18.97 2.6 2.6 6.04 3.92 9.48 3.92 3.2 0 6.38-1.2 8.92-3.5l1.8 1.8c-1.03 1.3-.98 3.1.2 4.3l6.17 6.13c.2.14.4.22.6.22s.4-.1.58-.25l4.1-4.13c.17-.14.2-.33.2-.53s-.03-.38-.2-.5z"/>
		    <path d="M13.42 13.3c-.55 0-1 .44-1 1 0 .54.45 1 1 1s1-.46 1-1c0-.56-.45-1-1-1m-5 0c-.55 0-1 .44-1 1 0 .54.45 1 1 1s1-.46 1-1c0-.56-.45-1-1-1m10 0c-.55 0-1 .44-1 1 0 .54.45 1 1 1s1-.46 1-1c0-.56-.45-1-1-1"/>
		  </g>
    </symbol>
    <symbol id='security'>
    	<path fill="#FFF" fill-rule="evenodd" d="M24.87 22.82c1.2 0 2.17.97 2.17 2.16 0 1.2-.97 2.17-2.17 2.17s-2.16-.98-2.16-2.17c0-1.2 1-2.16 2.2-2.16m-19.6 5.7c-1.9 0-3.5-1.58-3.5-3.54s1.6-3.55 3.6-3.55S9 23.03 9 24.98c0 1.96-1.6 3.55-3.55 3.55M37 14.27H18.4V7.94c0-3.55 2.9-6.44 6.44-6.44 3.56 0 6.45 2.9 6.45 6.44v3.44c0 .42.3.75.7.75.4 0 .7-.33.7-.75V7.94C32.8 3.56 29.2 0 24.8 0s-7.9 3.56-7.9 7.94v6.33h-4.06c-.4 0-.75.33-.75.75v9.2h-1.9c-.4-2.4-2.5-4.3-5-4.3-2.77 0-5 2.28-5 5.08 0 2.8 2.22 5.05 5 5.05 2.53 0 4.6-1.87 4.97-4.3h11.1c.32 1.66 1.8 2.92 3.56 2.92 2.02 0 3.67-1.65 3.67-3.67s-1.64-3.66-3.66-3.66c-1.76 0-3.24 1.25-3.58 2.9h-7.7V15.8h22.5v18.4H13.6v-5.16c0-.42-.33-.75-.75-.75-.4 0-.75.3-.75.7v5.9c0 .4.34.7.75.7h24c.42 0 .75-.4.75-.8V15c0-.4-.33-.74-.75-.74"/>
    </symbol>
    <symbol id='testing'>
    	<g fill="#FFF" fill-rule="evenodd">
		    <path d="M32.66 30.84c0 .4-.33.73-.73.73-.95 0-1.8.6-2.1 1.46-.08.23-.17.46-.28.68-.4.9-.23 1.9.43 2.5 0 .1 0 .1.02.1.13.2.2.3.2.5s-.07.4-.2.5l-.12.2c-.28.3-.74.3-1.02 0-.68-.6-1.7-.8-2.53-.4l-.68.3c-.87.4-1.46 1.2-1.46 2.1 0 .4-.4.8-.8.8h-.2c-.4 0-.8-.3-.8-.7 0-.9-.6-1.74-1.5-2.1-.2-.03-.5-.12-.7-.23-.3-.16-.6-.2-1-.2-.6 0-1.2.2-1.6.6-.3.3-.78.3-1.06 0l-.1-.1c-.13-.13-.2-.3-.2-.5s.07-.4.2-.52c0 0 .03 0 .03-.03.7-.63.9-1.63.5-2.5-.1-.2-.2-.4-.3-.64-.3-.86-1.2-1.45-2.1-1.45-.4 0-.8-.33-.8-.73V31c0-.4.36-.73.76-.73.92 0 1.8-.6 2.1-1.44.05-.2.14-.44.25-.7.4-.8.25-1.8-.4-2.5-.26-.3-.26-.73 0-1l.14-.1c.27-.3.73-.3 1 0 .7.63 1.7.8 2.54.4.23-.14.46-.2.7-.3.87-.3 1.46-1.16 1.46-2.1 0-.4.3-.74.7-.74h.18c.4 0 .73.3.73.7 0 1 .6 1.8 1.5 2.1l.7.3c.87.4 1.9.2 2.55-.4.3-.26.8-.26 1.05 0l.1.13c.3.3.3.76 0 1-.66.7-.84 1.7-.44 2.5l.3.7c.3.9 1.15 1.48 2.1 1.48.4 0 .73.35.73.75v.14zm-.73-2.4c-.3 0-.6-.17-.68-.45-.1-.3-.22-.6-.35-.9-.12-.3-.06-.6.16-.8.87-.9.87-2.3 0-3.2l-.12-.1c-.84-.9-2.3-.9-3.15 0h-.1c-.2.2-.6.3-.8.1l-.9-.4c-.3-.1-.5-.4-.5-.7 0-1.2-1-2.2-2.3-2.2H23c-1.1.1-2.1 1.1-2.1 2.3 0 .3-.2.6-.47.7l-.83.3c-.2.1-.5.1-.8-.2-.8-.8-2.3-.8-3.1 0l-.1.1c-.4.5-.6 1-.6 1.6 0 .6.22 1.2.64 1.6.2.2.27.6.15.8-.1.3-.28.6-.38.9-.1.3-.4.45-.7.45-1.2 0-2.2 1-2.2 2.23v.14c0 1.2 1 2.2 2.2 2.2.3 0 .6.2.7.46.1.3.24.6.37.88s.1.6-.1.8c-.4.4-.6 1-.6 1.6 0 .6.22 1.2.64 1.6l.17.1c.86.9 2.27.9 3.14 0 .2-.2.55-.25.8-.13.3.17.56.3.85.4.27.1.45.4.45.7 0 1.2 1 2.2 2.2 2.2h.2c1.2 0 2.2-1 2.2-2.24 0-.3.12-.6.4-.66.3-.1.57-.28.84-.4.23-.1.55-.07.8.13.85.86 2.3.86 3.14 0l.1-.13c.4-.4.65-.94.65-1.53 0-.6-.2-1.13-.6-1.55-.24-.2-.3-.53-.18-.8.13-.25.25-.53.35-.8.1-.3.36-.5.67-.5 1.2 0 2.2-1 2.2-2.25v-.2c0-1.24-1-2.24-2.26-2.24z"/>
		    <path d="M9.48 7.42h7.75V5H9.48v2.42zm2.12-4.17c0-.96.8-1.75 1.75-1.75.97 0 1.75.8 1.75 1.75 0 .1.03.17.05.25h-3.6c.03-.08.05-.16.05-.25zm1.1 32.35H1.76V6.87h6.22v1.3c0 .4.33.75.75.75h9.25c.4 0 .75-.34.75-.75v-1.3h6.22v11.38c0 .4.33.75.75.75.4 0 .75-.34.75-.75V6.12c0-.42-.34-.75-.75-.75h-6.97V4.25c0-.4-.34-.75-.75-.75h-1.43c.03-.08.05-.16.05-.25 0-1.8-1.46-3.25-3.25-3.25-1.8 0-3.25 1.46-3.25 3.25 0 .1.03.17.05.25H8.73c-.42 0-.75.34-.75.75v1.12H1c-.4 0-.74.33-.74.75v30.23c0 .4.33.75.75.75h11.7c.4 0 .8-.34.8-.75 0-.42-.3-.75-.7-.75z"/>
		    <path d="M9.92 14.3c-.32-.27-.8-.22-1.06.1L7.1 16.5l-.68-.66c-.3-.3-.77-.3-1.06 0-.3.3-.3.76 0 1.06l1.26 1.26s.02 0 .03.02l.02.02c.04.04.1.06.13.08.03 0 .06.03.08.04.1.04.18.06.27.06.1 0 .2-.03.3-.07h.08l.15-.1h.04l2.3-2.7c.26-.3.22-.8-.1-1m-1.06 8.2l-1.76 2-.68-.6c-.3-.3-.77-.3-1.06 0-.3.3-.3.8 0 1.1l1.26 1.28h.03s0 .04.02.05h.48c.1 0 .2 0 .3-.07l.08-.06.15-.1s0-.04.02-.05h.02l2.3-2.73c.26-.3.22-.8-.1-1.08-.32-.3-.8-.2-1.06.1m5.3-6.5c-.4 0-.75.3-.75.76 0 .4.4.77.8.77h6.7c.4 0 .8-.4.8-.8S21.4 16 21 16h-6.7zm9.22 16.58c-1.28 0-2.32-1.04-2.32-2.32S22.1 28 23.38 28c1.28 0 2.32 1.05 2.32 2.33s-1.04 2.33-2.32 2.33m0-6.15c-2.1 0-3.82 1.8-3.82 3.9s1.7 3.9 3.82 3.9c2.1 0 3.82-1.7 3.82-3.8 0-2.1-1.7-3.8-3.82-3.8"/>
		 </g>
    </symbol>
</svg>