<?xml version="1.0" encoding="UTF-8"?>
<svg width="392px" height="42px" viewBox="0 0 392 42" version="1.1" xmlns="http://www.w3.org/2000/svg" xmlns:xlink="http://www.w3.org/1999/xlink">
    <!-- Generator: Sketch 42 (36781) - http://www.bohemiancoding.com/sketch -->
    <title>subPanel</title>
    <desc>Created with Sketch.</desc>
    <defs>
        <rect id="path-1" x="0" y="0" width="450" height="100"></rect>
        <mask id="mask-2" maskContentUnits="userSpaceOnUse" maskUnits="objectBoundingBox" x="0" y="0" width="450" height="100" fill="white">
            <use xlink:href="#path-1"></use>
        </mask>
    </defs>
    <g id="Page-1" stroke="none" stroke-width="1" fill="none" fill-rule="evenodd">
        <g id="subPanel" transform="translate(-38.000000, -30.000000)">
            <g id="testing" transform="translate(189.500000, 30.000000)" fill="#FFFFFF">
                <path d="M33.1578,30.8398 C33.1578,31.2438 32.8288,31.5718 32.4258,31.5718 C31.4818,31.5718 30.6418,32.1558 30.3338,33.0268 C30.2518,33.2608 30.1568,33.4888 30.0508,33.7098 C29.6508,34.5388 29.8238,35.5398 30.4778,36.2088 C30.4838,36.2158 30.4908,36.2228 30.4968,36.2288 C30.6348,36.3668 30.7108,36.5508 30.7108,36.7458 C30.7108,36.9418 30.6348,37.1248 30.4958,37.2648 L30.3838,37.3768 C30.1018,37.6578 29.6448,37.6598 29.3588,37.3868 C29.3548,37.3828 29.3508,37.3788 29.3468,37.3748 C28.6798,36.7058 27.6678,36.5278 26.8288,36.9308 C26.6078,37.0368 26.3798,37.1318 26.1468,37.2148 C25.2768,37.5208 24.6918,38.3608 24.6918,39.3048 C24.6918,39.7088 24.3638,40.0368 23.9598,40.0368 L23.8008,40.0368 C23.3968,40.0368 23.0688,39.7088 23.0688,39.3048 C23.0688,38.3608 22.4838,37.5208 21.6148,37.2148 C21.3808,37.1318 21.1528,37.0368 20.9298,36.9298 C20.6318,36.7858 20.3118,36.7168 19.9928,36.7168 C19.4168,36.7168 18.8438,36.9438 18.4128,37.3748 C18.4098,37.3788 18.4058,37.3828 18.4028,37.3868 C18.1158,37.6618 17.6578,37.6598 17.3788,37.3788 L17.2628,37.2628 C17.1248,37.1248 17.0498,36.9418 17.0498,36.7458 C17.0498,36.5508 17.1248,36.3668 17.2628,36.2298 C17.2698,36.2228 17.2758,36.2168 17.2818,36.2098 C17.9368,35.5408 18.1098,34.5388 17.7108,33.7108 C17.6038,33.4888 17.5088,33.2618 17.4258,33.0258 C17.1188,32.1558 16.2788,31.5718 15.3348,31.5718 C14.9308,31.5718 14.6028,31.2438 14.6028,30.8398 L14.6028,30.6808 C14.6028,30.2768 14.9308,29.9478 15.3348,29.9478 C16.2788,29.9478 17.1188,29.3628 17.4268,28.4928 C17.5088,28.2588 17.6038,28.0308 17.7098,27.8108 C18.1128,26.9738 17.9328,25.9608 17.2638,25.2918 C16.9778,25.0058 16.9778,24.5418 17.2638,24.2558 L17.3758,24.1438 C17.6578,23.8608 18.1158,23.8578 18.4018,24.1328 C18.4058,24.1378 18.4098,24.1418 18.4138,24.1458 C19.0828,24.8148 20.0938,24.9928 20.9298,24.5898 C21.1518,24.4838 21.3798,24.3888 21.6148,24.3058 C22.4838,23.9978 23.0688,23.1578 23.0688,22.2148 C23.0688,21.8108 23.3968,21.4828 23.8008,21.4828 L23.9598,21.4828 C24.3638,21.4828 24.6918,21.8108 24.6918,22.2148 C24.6918,23.1578 25.2768,23.9978 26.1458,24.3058 C26.3808,24.3888 26.6088,24.4838 26.8298,24.5898 C27.6658,24.9928 28.6778,24.8158 29.3468,24.1458 L29.3588,24.1338 C29.6358,23.8668 30.1088,23.8678 30.3848,24.1448 L30.4958,24.2558 C30.7818,24.5408 30.7818,25.0068 30.4948,25.2928 C29.8268,25.9618 29.6478,26.9738 30.0498,27.8098 C30.1568,28.0318 30.2518,28.2598 30.3338,28.4928 C30.6408,29.3628 31.4818,29.9478 32.4258,29.9478 C32.8288,29.9478 33.1578,30.2768 33.1578,30.6808 L33.1578,30.8398 Z M32.4258,28.4478 C32.1158,28.4478 31.8448,28.2658 31.7488,27.9938 C31.6478,27.7088 31.5318,27.4308 31.4018,27.1598 C31.2758,26.8968 31.3378,26.5718 31.5578,26.3528 C32.4278,25.4828 32.4278,24.0658 31.5558,23.1938 L31.4448,23.0828 C30.6008,22.2388 29.1318,22.2388 28.2878,23.0828 L28.2758,23.0948 C28.0578,23.3068 27.7398,23.3628 27.4798,23.2378 C27.2098,23.1088 26.9308,22.9918 26.6458,22.8918 C26.3748,22.7958 26.1918,22.5238 26.1918,22.2148 C26.1918,20.9838 25.1908,19.9828 23.9598,19.9828 L23.8008,19.9828 C22.5698,19.9828 21.5688,20.9838 21.5688,22.2148 C21.5688,22.5238 21.3858,22.7958 21.1148,22.8918 C20.8288,22.9918 20.5508,23.1088 20.2798,23.2378 C20.0208,23.3638 19.7028,23.3048 19.4848,23.0948 L19.4728,23.0828 C18.6288,22.2388 17.1588,22.2388 16.3158,23.0828 L16.2028,23.1948 C15.7818,23.6168 15.5488,24.1778 15.5498,24.7748 C15.5498,25.3708 15.7828,25.9318 16.2038,26.3538 C16.4228,26.5718 16.4848,26.8968 16.3578,27.1608 C16.2278,27.4318 16.1118,27.7098 16.0118,27.9948 C15.9158,28.2658 15.6438,28.4478 15.3348,28.4478 C14.1038,28.4478 13.1028,29.4488 13.1028,30.6808 L13.1028,30.8398 C13.1028,32.0708 14.1038,33.0718 15.3348,33.0718 C15.6438,33.0718 15.9158,33.2538 16.0108,33.5238 C16.1118,33.8108 16.2278,34.0888 16.3588,34.3608 C16.4848,34.6228 16.4228,34.9468 16.2038,35.1658 C16.1988,35.1718 16.1928,35.1778 16.1878,35.1838 C15.7758,35.6038 15.5498,36.1568 15.5498,36.7458 C15.5498,37.3428 15.7818,37.9028 16.2008,38.3218 L16.3158,38.4388 C17.1858,39.3058 18.6018,39.3058 19.4718,38.4388 C19.4768,38.4338 19.4808,38.4298 19.4848,38.4248 C19.7028,38.2138 20.0208,38.1578 20.2788,38.2798 C20.5498,38.4118 20.8278,38.5278 21.1158,38.6288 C21.3868,38.7248 21.5688,38.9958 21.5688,39.3048 C21.5688,40.5358 22.5698,41.5368 23.8008,41.5368 L23.9598,41.5368 C25.1908,41.5368 26.1918,40.5358 26.1918,39.3048 C26.1918,38.9958 26.3738,38.7248 26.6458,38.6288 C26.9318,38.5278 27.2108,38.4118 27.4798,38.2808 C27.7398,38.1568 28.0578,38.2158 28.2748,38.4248 C28.2798,38.4298 28.2838,38.4338 28.2878,38.4388 C29.1588,39.3058 30.5748,39.3078 31.4458,38.4368 L31.5568,38.3238 C31.9788,37.9028 32.2108,37.3428 32.2108,36.7458 C32.2108,36.1568 31.9848,35.6048 31.5738,35.1848 C31.5678,35.1788 31.5618,35.1718 31.5558,35.1658 C31.3378,34.9468 31.2758,34.6228 31.4028,34.3598 C31.5328,34.0888 31.6478,33.8118 31.7488,33.5258 C31.8448,33.2538 32.1158,33.0718 32.4258,33.0718 C33.6568,33.0718 34.6578,32.0708 34.6578,30.8398 L34.6578,30.6808 C34.6578,29.4488 33.6568,28.4478 32.4258,28.4478 L32.4258,28.4478 Z" id="Fill-6"></path>
                <path d="M9.978,7.4171 L17.728,7.4171 L17.728,5.0001 L9.978,5.0001 L9.978,7.4171 Z M12.103,3.2501 C12.103,2.2851 12.888,1.5001 13.853,1.5001 C14.817,1.5001 15.603,2.2851 15.603,3.2501 C15.603,3.3391 15.625,3.4211 15.653,3.5001 L12.052,3.5001 C12.08,3.4211 12.103,3.3391 12.103,3.2501 L12.103,3.2501 Z M13.198,35.5991 L2.257,35.5991 L2.257,6.8661 L8.478,6.8661 L8.478,8.1671 C8.478,8.5811 8.814,8.9171 9.228,8.9171 L18.478,8.9171 C18.892,8.9171 19.228,8.5811 19.228,8.1671 L19.228,6.8661 L25.448,6.8661 L25.448,18.2501 C25.448,18.6641 25.784,19.0001 26.198,19.0001 C26.612,19.0001 26.948,18.6641 26.948,18.2501 L26.948,6.1161 C26.948,5.7021 26.612,5.3661 26.198,5.3661 L19.228,5.3661 L19.228,4.2501 C19.228,3.8361 18.892,3.5001 18.478,3.5001 L17.052,3.5001 C17.08,3.4211 17.103,3.3391 17.103,3.2501 C17.103,1.4581 15.645,0.0001 13.853,0.0001 C12.061,0.0001 10.603,1.4581 10.603,3.2501 C10.603,3.3391 10.625,3.4211 10.653,3.5001 L9.228,3.5001 C8.814,3.5001 8.478,3.8361 8.478,4.2501 L8.478,5.3661 L1.507,5.3661 C1.093,5.3661 0.757,5.7021 0.757,6.1161 L0.757,36.3491 C0.757,36.7631 1.093,37.0991 1.507,37.0991 L13.198,37.0991 C13.612,37.0991 13.948,36.7631 13.948,36.3491 C13.948,35.9341 13.612,35.5991 13.198,35.5991 L13.198,35.5991 Z" id="Fill-8"></path>
                <path d="M10.42,14.3008 C10.103,14.0348 9.629,14.0778 9.364,14.3968 L7.598,16.5148 L6.919,15.8358 C6.626,15.5428 6.151,15.5428 5.858,15.8358 C5.566,16.1288 5.566,16.6038 5.858,16.8968 L7.119,18.1558 C7.127,18.1648 7.139,18.1668 7.148,18.1758 C7.156,18.1838 7.16,18.1948 7.169,18.2018 C7.211,18.2378 7.259,18.2558 7.305,18.2798 C7.331,18.2938 7.355,18.3138 7.382,18.3238 C7.468,18.3578 7.558,18.3758 7.649,18.3758 L7.649,18.3758 C7.751,18.3758 7.851,18.3528 7.946,18.3118 C7.978,18.2978 8.003,18.2718 8.033,18.2538 C8.083,18.2228 8.136,18.1988 8.179,18.1558 C8.188,18.1478 8.191,18.1358 8.199,18.1258 C8.207,18.1178 8.218,18.1148 8.225,18.1068 L10.516,15.3578 C10.781,15.0388 10.738,14.5668 10.42,14.3008" id="Fill-10"></path>
                <path d="M9.3639,22.583 L7.5979,24.701 L6.9189,24.022 C6.6259,23.729 6.1519,23.729 5.8589,24.022 C5.5659,24.315 5.5659,24.79 5.8589,25.083 L7.1189,26.343 C7.1269,26.352 7.1389,26.354 7.1479,26.362 C7.1559,26.37 7.1599,26.381 7.1689,26.389 C7.2109,26.424 7.2589,26.442 7.3049,26.466 C7.3309,26.48 7.3549,26.5 7.3819,26.511 C7.4679,26.544 7.5579,26.562 7.6489,26.562 L7.6489,26.562 C7.7509,26.562 7.8509,26.539 7.9459,26.498 C7.9779,26.484 8.0029,26.458 8.0329,26.44 C8.0829,26.41 8.1359,26.386 8.1789,26.343 C8.1879,26.334 8.1909,26.322 8.1989,26.312 C8.2069,26.305 8.2179,26.302 8.2249,26.293 L10.5159,23.544 C10.7809,23.226 10.7389,22.753 10.4199,22.487 C10.1029,22.222 9.6299,22.265 9.3639,22.583" id="Fill-11"></path>
                <path d="M14.6642,16.0879 C14.2502,16.0879 13.9142,16.4239 13.9142,16.8379 C13.9142,17.2519 14.2502,17.5879 14.6642,17.5879 L21.3172,17.5879 C21.7312,17.5879 22.0672,17.2519 22.0672,16.8379 C22.0672,16.4239 21.7312,16.0879 21.3172,16.0879 L14.6642,16.0879 Z" id="Fill-12"></path>
                <path d="M23.88,32.6553 C22.6,32.6553 21.559,31.6143 21.559,30.3343 C21.559,29.0533 22.6,28.0123 23.88,28.0123 C25.16,28.0123 26.201,29.0533 26.201,30.3343 C26.201,31.6143 25.16,32.6553 23.88,32.6553 M23.88,26.5123 C21.773,26.5123 20.059,28.2263 20.059,30.3343 C20.059,32.4413 21.773,34.1553 23.88,34.1553 C25.987,34.1553 27.701,32.4413 27.701,30.3343 C27.701,28.2263 25.987,26.5123 23.88,26.5123" id="Fill-13"></path>
            </g>
            <path d="M78.168473,51.5903332 C78.229473,51.0463332 78.259473,50.5343332 78.259473,50.0413332 C78.259473,47.5343332 77.631473,45.0533332 76.442473,42.8643332 C76.396473,42.7793332 76.333473,42.7093332 76.263473,42.6513332 C76.246473,42.5733332 76.227473,42.4963332 76.185473,42.4253332 C74.145473,38.9593332 70.877473,36.4953332 66.984473,35.4863332 C63.092473,34.4793332 59.039473,35.0473332 55.573473,37.0863332 C55.245473,37.2793332 54.934473,37.4933332 54.625473,37.7083332 C53.710473,37.0353332 52.693473,36.5533332 51.586473,36.2893332 C50.942473,36.1363332 50.280473,36.0593332 49.617473,36.0593332 C44.947473,36.0593332 41.147473,39.8593332 41.147473,44.5283332 C41.147473,45.4913332 41.316473,46.4273332 41.629473,47.3233332 C39.148473,49.3973332 37.798473,52.4933332 38.024473,55.7423332 C38.390473,60.9883332 42.942473,65.0973332 48.390473,65.0973332 L60.332473,65.0973332 L60.335473,65.0973332 C64.430473,65.0973332 68.058473,62.4193332 69.157473,58.5863332 C70.114473,55.2513332 69.890473,51.7983332 68.576473,48.6603332 L72.891473,50.4973332 C73.273473,50.6583332 73.713473,50.4823332 73.874473,50.1013332 C74.037473,49.7193332 73.859473,49.2783332 73.478473,49.1163332 L67.339473,46.5043332 C67.325473,46.4983332 67.310473,46.5003332 67.294473,46.4953332 C67.085473,46.4103332 66.845473,46.4083332 66.634473,46.5303332 C66.431473,46.6513332 66.315473,46.8543332 66.284473,47.0703332 L63.744473,53.0383332 C63.581473,53.4203332 63.759473,53.8613332 64.140473,54.0233332 C64.236473,54.0633332 64.335473,54.0823332 64.433473,54.0823332 C64.725473,54.0823332 65.002473,53.9113332 65.124473,53.6263332 L67.095473,48.9943332 C68.370473,51.8823332 68.602473,55.0843332 67.715473,58.1723332 C66.799473,61.3663332 63.764473,63.5973332 60.334473,63.5973332 L60.332473,63.5973332 L48.390473,63.5973332 C43.727473,63.5973332 39.832473,60.1013332 39.521473,55.6393332 C39.317473,52.7063332 40.606473,49.9063332 42.970473,48.1503332 C43.253473,47.9403332 43.331473,47.5713332 43.200473,47.2603332 L43.203473,47.2593332 C42.835473,46.3963332 42.647473,45.4773332 42.647473,44.5283332 C42.647473,40.6863332 45.774473,37.5593332 49.617473,37.5593332 C50.163473,37.5593332 50.710473,37.6223332 51.239473,37.7483332 C52.006473,37.9313332 52.722473,38.2423332 53.379473,38.6663332 C51.070473,40.6503332 49.414473,43.2773332 48.634473,46.2863332 C47.801473,49.5013332 48.061473,52.8203332 49.319473,55.8333332 L45.004473,53.9963332 C44.623473,53.8373332 44.182473,54.0133332 44.021473,54.3933332 C43.858473,54.7753332 44.036473,55.2153332 44.417473,55.3773332 L50.555473,57.9893332 C50.598473,58.0073332 50.643473,58.0063332 50.687473,58.0163332 C50.751473,58.0343332 50.813473,58.0673332 50.880473,58.0673332 C50.940473,58.0673332 50.997473,58.0333332 51.056473,58.0193332 L51.066473,58.0163332 C51.131473,57.9993332 51.199473,57.9993332 51.260473,57.9633332 C51.464473,57.8433332 51.579473,57.6413332 51.611473,57.4233332 L54.151473,51.4553332 C54.314473,51.0743332 54.136473,50.6333332 53.755473,50.4713332 C53.372473,50.3123332 52.933473,50.4873332 52.772473,50.8673332 L50.801473,55.4973332 C49.579473,52.7233332 49.314473,49.6423332 50.086473,46.6623332 C50.995473,43.1563332 53.213473,40.2153332 56.334473,38.3793332 C59.454473,36.5433332 63.104473,36.0333332 66.608473,36.9393332 C70.113473,37.8473332 73.055473,40.0663332 74.892473,43.1873332 C74.936473,43.2623332 74.997473,43.3203332 75.060473,43.3743332 C75.074473,43.4443332 75.087473,43.5153332 75.124473,43.5813332 C76.194473,45.5503332 76.759473,47.7843332 76.759473,50.0413332 C76.759473,50.7043332 76.697473,51.4133332 76.569473,52.2083332 C76.534473,52.4293332 76.598473,52.6533332 76.746473,52.8213332 C76.888473,52.9853332 77.094473,53.0773332 77.310473,53.0773332 C77.343473,53.0753332 77.474473,53.0633332 77.509473,53.0583332 C80.415473,53.0583332 82.779473,55.4223332 82.779473,58.3273332 C82.779473,61.2333332 80.415473,63.5973332 77.509473,63.5973332 L70.570473,63.5973332 C70.156473,63.5973332 69.820473,63.9333332 69.820473,64.3473332 C69.820473,64.7613332 70.156473,65.0973332 70.570473,65.0973332 L77.509473,65.0973332 C81.242473,65.0973332 84.279473,62.0603332 84.279473,58.3273332 C84.279473,54.8173332 81.593473,51.9223332 78.168473,51.5903332" id="Fill-1" fill="#FFFFFF"></path>
            <path d="M156.12241,56.4856938 C154.75241,57.3396938 152.94741,56.9206938 152.09441,55.5526938 C151.68041,54.8906938 151.55041,54.1076938 151.72641,53.3456938 C151.90241,52.5856938 152.36441,51.9386938 153.02641,51.5256938 C153.50741,51.2256938 154.04141,51.0826938 154.56941,51.0826938 C155.54541,51.0826938 156.50041,51.5706938 157.05541,52.4586938 C157.90841,53.8256938 157.49041,55.6316938 156.12241,56.4856938 M150.26541,53.0076938 C150.15841,53.4666938 150.14641,53.9286938 150.18541,54.3856938 L141.45441,60.2476938 C141.24541,59.8186938 140.98141,59.4106938 140.62641,59.0546938 C140.44541,58.8746938 140.24741,58.7226938 140.04441,58.5806938 L145.37341,43.6796938 C145.76141,43.7876938 146.16241,43.8476938 146.56641,43.8476938 C147.04741,43.8476938 147.52941,43.7586938 147.99741,43.5976938 L151.82641,50.5646938 C151.04941,51.1836938 150.49241,52.0256938 150.26541,53.0076938 M139.56541,64.2506938 C138.42641,65.3906938 136.57041,65.3906938 135.43141,64.2506938 C134.29141,63.1106938 134.29141,61.2556938 135.43141,60.1156938 C136.00041,59.5456938 136.74941,59.2606938 137.49841,59.2606938 C138.24741,59.2606938 138.99641,59.5456938 139.56541,60.1156938 C140.70541,61.2556938 140.70541,63.1106938 139.56541,64.2506938 M133.52041,60.2886938 L124.80941,54.3836938 C124.93041,52.9456938 124.34441,51.5056938 123.16841,50.5656938 L126.99841,43.5986938 C127.46041,43.7586938 127.94141,43.8496938 128.42941,43.8496938 C128.76441,43.8496938 129.10141,43.8116938 129.43541,43.7346938 C129.49941,43.7196938 129.55741,43.6896938 129.62141,43.6726938 L134.96541,58.5686938 C134.75841,58.7146938 134.55541,58.8696938 134.37041,59.0546938 C134.00341,59.4226938 133.73141,59.8436938 133.52041,60.2886938 M122.90241,55.5526938 C122.48941,56.2156938 121.84241,56.6776938 121.08141,56.8536938 C120.32241,57.0326938 119.53741,56.8996938 118.87441,56.4856938 C117.50641,55.6316938 117.08841,53.8256938 117.94141,52.4586938 C118.49541,51.5706938 119.45141,51.0826938 120.42741,51.0826938 C120.95541,51.0826938 121.48941,51.2256938 121.97041,51.5256938 C123.33741,52.3786938 123.75541,54.1856938 122.90241,55.5526938 M125.95641,37.8786938 C126.51041,36.9906938 127.46641,36.5026938 128.44241,36.5026938 C128.97141,36.5026938 129.50541,36.6446938 129.98541,36.9446938 C130.64741,37.3576938 131.10941,38.0046938 131.28541,38.7646938 C131.46141,39.5266938 131.33141,40.3096938 130.91741,40.9716938 L130.91741,40.9726938 C130.50441,41.6346938 129.85741,42.0966938 129.09741,42.2726938 C128.33841,42.4516938 127.55241,42.3186938 126.88941,41.9046938 C126.22641,41.4916938 125.76541,40.8446938 125.58941,40.0846938 C125.41341,39.3236938 125.54341,38.5406938 125.95641,37.8786938 M143.71041,38.7656938 C143.88741,38.0056938 144.34941,37.3586938 145.01141,36.9456938 C145.67441,36.5306938 146.45741,36.3976938 147.21841,36.5776938 C147.97941,36.7536938 148.62541,37.2146938 149.03941,37.8786938 C149.45341,38.5406938 149.58341,39.3236938 149.40741,40.0856938 C149.23141,40.8456938 148.76941,41.4926938 148.10641,41.9056938 C146.73841,42.7586938 144.93241,42.3396938 144.07841,40.9736938 C143.66541,40.3106938 143.53441,39.5266938 143.71041,38.7656938 M158.32741,51.6636938 C157.21541,49.8826938 155.03941,49.1756938 153.13541,49.8316938 L149.30641,42.8666938 C150.08341,42.2476938 150.64141,41.4056938 150.86841,40.4236938 C151.13541,39.2716938 150.93741,38.0866938 150.31141,37.0846938 C149.68641,36.0816938 148.70841,35.3816938 147.55741,35.1156938 C146.40541,34.8486938 145.21941,35.0476938 144.21741,35.6726938 C143.21541,36.2976938 142.51641,37.2756938 142.24941,38.4266938 C141.98241,39.5786938 142.18041,40.7646938 142.80641,41.7666938 L142.80641,41.7676938 C143.12841,42.2836938 143.54141,42.7086938 144.01041,43.0376938 L138.67941,57.9416938 C137.91041,57.7286938 137.10241,57.7266938 136.33241,57.9366938 L130.98741,43.0396938 C131.46341,42.7046938 131.87241,42.2756938 132.19041,41.7666938 C132.81541,40.7636938 133.01341,39.5786938 132.74741,38.4266938 C132.48041,37.2756938 131.78141,36.2976938 130.77941,35.6716938 C128.71041,34.3816938 125.97641,35.0136938 124.68441,37.0836938 C124.05941,38.0866938 123.86141,39.2716938 124.12741,40.4236938 C124.35541,41.4056938 124.91241,42.2476938 125.68941,42.8666938 L121.86041,49.8316938 C119.95641,49.1766938 117.78041,49.8846938 116.66941,51.6636938 C115.37841,53.7326938 116.01141,56.4666938 118.08041,57.7586938 C118.79141,58.2026938 119.59541,58.4306938 120.41441,58.4306938 C120.74841,58.4306938 121.08541,58.3926938 121.41941,58.3156938 C122.57141,58.0486938 123.54941,57.3496938 124.17541,56.3476938 L124.17541,56.3466938 C124.26241,56.2076938 124.31941,56.0576938 124.38941,55.9126938 L133.11141,61.8236938 C133.01041,63.0736938 133.41641,64.3566938 134.37041,65.3106938 C135.23241,66.1736938 136.36541,66.6046938 137.49841,66.6046938 C138.63141,66.6046938 139.76441,66.1736938 140.62641,65.3106938 C141.59441,64.3426938 141.99841,63.0366938 141.88041,61.7686938 L150.60541,55.9116938 C150.67541,56.0576938 150.73441,56.2086938 150.82141,56.3476938 C151.65941,57.6906938 153.10441,58.4276938 154.58141,58.4276938 C155.38141,58.4276938 156.18941,58.2126938 156.91641,57.7586938 C158.98541,56.4666938 159.61841,53.7326938 158.32741,51.6636938" id="Fill-4" fill="#FFFFFF"></path>
            <path d="M280.872527,55.818 C282.065527,55.818 283.036527,56.789 283.036527,57.982 C283.036527,59.174 282.065527,60.145 280.872527,60.145 C279.679527,60.145 278.708527,59.174 278.708527,57.982 C278.708527,56.789 279.679527,55.818 280.872527,55.818 M261.268527,61.53 C259.312527,61.53 257.720527,59.938 257.720527,57.982 C257.720527,56.025 259.312527,54.433 261.268527,54.433 C263.225527,54.433 264.817527,56.025 264.817527,57.982 C264.817527,59.938 263.225527,61.53 261.268527,61.53 M292.873527,47.269 L274.429527,47.269 L274.429527,40.943 C274.429527,37.39 277.319527,34.5 280.872527,34.5 C284.425527,34.5 287.316527,37.39 287.316527,40.943 L287.316527,44.383 C287.316527,44.797 287.652527,45.133 288.066527,45.133 C288.480527,45.133 288.816527,44.797 288.816527,44.383 L288.816527,40.943 C288.816527,36.563 285.252527,33 280.872527,33 C276.492527,33 272.929527,36.563 272.929527,40.943 L272.929527,47.269 L268.871527,47.269 C268.457527,47.269 268.121527,47.605 268.121527,48.019 L268.121527,57.232 L266.241527,57.232 C265.875527,54.805 263.795527,52.933 261.268527,52.933 C258.485527,52.933 256.220527,55.198 256.220527,57.982 C256.220527,60.765 258.485527,63.03 261.268527,63.03 C263.795527,63.03 265.875527,61.158 266.241527,58.732 L277.287527,58.732 C277.634527,60.393 279.109527,61.645 280.872527,61.645 C282.892527,61.645 284.536527,60.002 284.536527,57.982 C284.536527,55.962 282.892527,54.318 280.872527,54.318 C279.109527,54.318 277.634527,55.57 277.287527,57.232 L269.621527,57.232 L269.621527,48.769 L292.123527,48.769 L292.123527,67.195 L269.621527,67.195 L269.621527,62.038 C269.621527,61.624 269.285527,61.288 268.871527,61.288 C268.457527,61.288 268.121527,61.624 268.121527,62.038 L268.121527,67.945 C268.121527,68.359 268.457527,68.695 268.871527,68.695 L292.873527,68.695 C293.287527,68.695 293.623527,68.359 293.623527,67.945 L293.623527,48.019 C293.623527,47.605 293.287527,47.269 292.873527,47.269" id="Fill-28" fill="#FFFFFF"></path>
            <g id="migration" transform="translate(324.000000, 32.000000)" fill="#FFFFFF">
                <path d="M11.068,14.7661 L26.568,14.7661 L26.568,2.2661 L11.068,2.2661 L11.068,14.7661 Z M27.318,0.7661 L10.318,0.7661 C9.904,0.7661 9.568,1.1011 9.568,1.5161 L9.568,15.5161 C9.568,15.9301 9.904,16.2661 10.318,16.2661 L27.318,16.2661 C27.733,16.2661 28.068,15.9301 28.068,15.5161 L28.068,1.5161 C28.068,1.1011 27.733,0.7661 27.318,0.7661 L27.318,0.7661 Z" id="Fill-18"></path>
                <path d="M11.068,35.4651 L26.568,35.4651 L26.568,22.9651 L11.068,22.9651 L11.068,35.4651 Z M27.318,21.4651 L10.318,21.4651 C9.904,21.4651 9.568,21.8011 9.568,22.2151 L9.568,36.2151 C9.568,36.6291 9.904,36.9651 10.318,36.9651 L27.318,36.9651 C27.733,36.9651 28.068,36.6291 28.068,36.2151 L28.068,22.2151 C28.068,21.8011 27.733,21.4651 27.318,21.4651 L27.318,21.4651 Z" id="Fill-19"></path>
                <path d="M14.3185,6.5156 C14.8705,6.5156 15.3185,6.0686 15.3185,5.5156 C15.3185,4.9636 14.8705,4.5156 14.3185,4.5156 C13.7655,4.5156 13.3185,4.9636 13.3185,5.5156 C13.3185,6.0686 13.7655,6.5156 14.3185,6.5156" id="Fill-20"></path>
                <path d="M17.3185,6.5156 C17.8705,6.5156 18.3185,6.0686 18.3185,5.5156 C18.3185,4.9636 17.8705,4.5156 17.3185,4.5156 C16.7655,4.5156 16.3185,4.9636 16.3185,5.5156 C16.3185,6.0686 16.7655,6.5156 17.3185,6.5156" id="Fill-21"></path>
                <path d="M14.3185,27.2148 C14.8705,27.2148 15.3185,26.7678 15.3185,26.2148 C15.3185,25.6618 14.8705,25.2148 14.3185,25.2148 C13.7655,25.2148 13.3185,25.6618 13.3185,26.2148 C13.3185,26.7678 13.7655,27.2148 14.3185,27.2148" id="Fill-22"></path>
                <path d="M17.3185,27.2148 C17.8705,27.2148 18.3185,26.7678 18.3185,26.2148 C18.3185,25.6618 17.8705,25.2148 17.3185,25.2148 C16.7655,25.2148 16.3185,25.6618 16.3185,26.2148 C16.3185,26.7678 16.7655,27.2148 17.3185,27.2148" id="Fill-23"></path>
                <path d="M17.3517,31.4648 L14.3517,31.4648 C13.9377,31.4648 13.6017,31.8008 13.6017,32.2148 C13.6017,32.6288 13.9377,32.9648 14.3517,32.9648 L17.3517,32.9648 C17.7657,32.9648 18.1017,32.6288 18.1017,32.2148 C18.1017,31.8008 17.7657,31.4648 17.3517,31.4648" id="Fill-24"></path>
                <path d="M17.4361,10.7656 L14.4361,10.7656 C14.0221,10.7656 13.6861,11.1016 13.6861,11.5156 C13.6861,11.9296 14.0221,12.2656 14.4361,12.2656 L17.4361,12.2656 C17.8501,12.2656 18.1861,11.9296 18.1861,11.5156 C18.1861,11.1016 17.8501,10.7656 17.4361,10.7656" id="Fill-25"></path>
                <path d="M7.0279,28.9648 C7.0259,28.9578 7.0259,28.9508 7.0229,28.9438 C6.9849,28.8198 6.9259,28.7028 6.8239,28.6098 L4.4529,26.4438 C4.1479,26.1628 3.6729,26.1858 3.3939,26.4908 C3.1139,26.7968 3.1359,27.2718 3.4419,27.5508 L4.3419,28.3728 L1.9039,28.3728 L1.9039,9.2658 L6.1119,9.2658 C6.5259,9.2658 6.8619,8.9298 6.8619,8.5158 C6.8619,8.1018 6.5259,7.7658 6.1119,7.7658 L1.1539,7.7658 C0.7399,7.7658 0.4039,8.1018 0.4039,8.5158 L0.4039,29.1228 C0.4039,29.5368 0.7399,29.8728 1.1539,29.8728 L4.4689,29.8728 L3.4419,30.8128 C3.1359,31.0918 3.1139,31.5668 3.3939,31.8718 C3.5419,32.0338 3.7439,32.1158 3.9469,32.1158 C4.1279,32.1158 4.3099,32.0518 4.4529,31.9198 L6.8239,29.7528 C6.9259,29.6588 6.9849,29.5408 7.0229,29.4178 C7.0259,29.4108 7.0259,29.4038 7.0279,29.3978 C7.0479,29.3248 7.0619,29.2548 7.0599,29.1818 C7.0619,29.1078 7.0479,29.0368 7.0279,28.9648" id="Fill-26"></path>
                <path d="M36.483,8.8877 L33.167,8.8877 L34.195,7.9487 C34.501,7.6687 34.522,7.1947 34.243,6.8887 C33.964,6.5827 33.489,6.5617 33.183,6.8407 L30.813,9.0067 C30.71,9.1007 30.651,9.2187 30.613,9.3437 C30.611,9.3497 30.611,9.3557 30.609,9.3617 C30.589,9.4337 30.575,9.5047 30.577,9.5787 C30.575,9.6537 30.589,9.7247 30.609,9.7967 C30.611,9.8027 30.611,9.8087 30.613,9.8147 C30.651,9.9397 30.71,10.0577 30.813,10.1517 L33.183,12.3177 C33.327,12.4497 33.508,12.5137 33.689,12.5137 C33.892,12.5137 34.095,12.4317 34.243,12.2697 C34.522,11.9637 34.501,11.4897 34.195,11.2097 L33.295,10.3877 L35.733,10.3877 L35.733,29.4947 L31.525,29.4947 C31.11,29.4947 30.775,29.8307 30.775,30.2447 C30.775,30.6587 31.11,30.9947 31.525,30.9947 L36.483,30.9947 C36.897,30.9947 37.233,30.6587 37.233,30.2447 L37.233,9.6377 C37.233,9.2237 36.897,8.8877 36.483,8.8877" id="Fill-27"></path>
            </g>
            <g id="other" transform="translate(393.720527, 35.000000)" fill="#FFFFFF">
                <path d="M31.3194,34.9775 L25.6904,29.3475 C25.0124,28.6695 25.0124,27.5665 25.6904,26.8885 L26.2954,26.2845 C26.6234,25.9555 27.0604,25.7745 27.5244,25.7745 C27.9894,25.7745 28.4254,25.9555 28.7544,26.2845 L34.3834,31.9135 L31.3194,34.9775 Z M5.2804,22.7065 C0.6404,18.0655 0.6404,10.5155 5.2804,5.8745 C7.5284,3.6265 10.5174,2.3885 13.6964,2.3885 C16.8754,2.3885 19.8644,3.6265 22.1124,5.8745 C24.3604,8.1235 25.5984,11.1115 25.5984,14.2905 C25.5984,17.4695 24.3604,20.4575 22.1124,22.7065 C17.4724,27.3455 9.9214,27.3455 5.2804,22.7065 L5.2804,22.7065 Z M35.9744,31.3825 L29.8154,25.2235 C28.6694,24.0765 26.7344,24.0175 25.4864,25.0195 L23.6774,23.2105 C25.8804,20.7505 27.0984,17.6185 27.0984,14.2905 C27.0984,10.7105 25.7044,7.3455 23.1734,4.8145 C20.6414,2.2835 17.2764,0.8885 13.6964,0.8885 C10.1164,0.8885 6.7514,2.2835 4.2204,4.8145 C-1.0046,10.0395 -1.0046,18.5405 4.2204,23.7665 C6.8334,26.3785 10.2644,27.6855 13.6964,27.6855 C16.8934,27.6855 20.0814,26.5375 22.6154,24.2695 L24.4244,26.0795 C23.3864,27.3495 23.4444,29.2235 24.6294,30.4085 L30.7894,36.5685 C30.9294,36.7085 31.1204,36.7885 31.3194,36.7885 C31.5184,36.7885 31.7094,36.7085 31.8494,36.5685 L35.9744,32.4435 C36.1154,32.3025 36.1944,32.1125 36.1944,31.9135 C36.1944,31.7135 36.1154,31.5235 35.9744,31.3825 L35.9744,31.3825 Z" id="Fill-14"></path>
                <path d="M13.6969,13.29 C13.1449,13.29 12.6969,13.738 12.6969,14.29 C12.6969,14.843 13.1449,15.29 13.6969,15.29 C14.2489,15.29 14.6969,14.843 14.6969,14.29 C14.6969,13.738 14.2489,13.29 13.6969,13.29" id="Fill-15"></path>
                <path d="M8.6969,13.29 C8.1449,13.29 7.6969,13.738 7.6969,14.29 C7.6969,14.843 8.1449,15.29 8.6969,15.29 C9.2489,15.29 9.6969,14.843 9.6969,14.29 C9.6969,13.738 9.2489,13.29 8.6969,13.29" id="Fill-16"></path>
                <path d="M18.6969,13.29 C18.1449,13.29 17.6969,13.738 17.6969,14.29 C17.6969,14.843 18.1449,15.29 18.6969,15.29 C19.2489,15.29 19.6969,14.843 19.6969,14.29 C19.6969,13.738 19.2489,13.29 18.6969,13.29" id="Fill-17"></path>
            </g>
            <use id="Rectangle-2" stroke-opacity="0" stroke="#979797" mask="url(#mask-2)" stroke-width="2" fill-opacity="0" fill="#D8D8D8" xlink:href="#path-1"></use>
        </g>
    </g>
</svg>